<svg xmlns="http://www.w3.org/2000/svg" width="500" height="500"><rect width="500" height="500" fill="white" rx="3"/><rect x="48.0" y="95.1" width="404.0" height="309.7" fill="#f5f5f7" stroke="#e0e0e0" stroke-width="0.5"/><text x="250" y="18" text-anchor="middle" font-size="11" font-weight="600" fill="#333" font-family="sans-serif">Z = 18.68 mm  ·  XY plane</text><g><line x1="452.0" y1="116.2" x2="452.0" y2="95.1" stroke="#1a1a2e" stroke-width="1.2" stroke-linecap="round"/><line x1="452.0" y1="128.8" x2="452.0" y2="116.2" stroke="#1a1a2e" stroke-width="1.2" stroke-linecap="round"/><line x1="167.5" y1="128.8" x2="175.9" y2="128.8" stroke="#1a1a2e" stroke-width="1.2" stroke-linecap="round"/><line x1="72.1" y1="128.8" x2="72.8" y2="128.8" stroke="#1a1a2e" stroke-width="1.2" stroke-linecap="round"/><line x1="72.8" y1="128.8" x2="73.5" y2="128.8" stroke="#1a1a2e" stroke-width="1.2" stroke-linecap="round"/><line x1="71.5" y1="128.8" x2="72.1" y2="128.8" stroke="#1a1a2e" stroke-width="1.2" stroke-linecap="round"/><line x1="73.5" y1="128.8" x2="74.2" y2="128.8" stroke="#1a1a2e" stroke-width="1.2" stroke-linecap="round"/><line x1="70.9" y1="128.8" x2="71.5" y2="128.8" stroke="#1a1a2e" stroke-width="1.2" stroke-linecap="round"/><line x1="74.2" y1="128.8" x2="75.0" y2="128.8" stroke="#1a1a2e" stroke-width="1.2" stroke-linecap="round"/><line x1="70.3" y1="128.8" x2="70.9" y2="128.8" stroke="#1a1a2e" stroke-width="1.2" stroke-linecap="round"/><line x1="75.0" y1="128.8" x2="75.8" y2="128.8" stroke="#1a1a2e" stroke-width="1.2" stroke-linecap="round"/><line x1="69.7" y1="128.8" x2="70.3" y2="128.8" stroke="#1a1a2e" stroke-width="1.2" stroke-linecap="round"/><line x1="75.8" y1="128.8" x2="76.6" y2="128.8" stroke="#1a1a2e" stroke-width="1.2" stroke-linecap="round"/><line x1="69.2" y1="128.8" x2="69.7" y2="128.8" stroke="#1a1a2e" stroke-width="1.2" stroke-linecap="round"/><line x1="76.6" y1="128.8" x2="77.4" y2="128.8" stroke="#1a1a2e" stroke-width="1.2" stroke-linecap="round"/><line x1="68.7" y1="128.8" x2="69.2" y2="128.8" stroke="#1a1a2e" stroke-width="1.2" stroke-linecap="round"/><line x1="77.4" y1="128.8" x2="78.2" y2="128.8" stroke="#1a1a2e" stroke-width="1.2" stroke-linecap="round"/><line x1="68.3" y1="128.8" x2="68.7" y2="128.8" stroke="#1a1a2e" stroke-width="1.2" stroke-linecap="round"/><line x1="78.2" y1="128.8" x2="79.1" y2="128.8" stroke="#1a1a2e" stroke-width="1.2" stroke-linecap="round"/><line x1="79.1" y1="128.8" x2="167.5" y2="128.8" stroke="#1a1a2e" stroke-width="1.2" stroke-linecap="round"/><line x1="67.9" y1="128.8" x2="68.3" y2="128.8" stroke="#1a1a2e" stroke-width="1.2" stroke-linecap="round"/><line x1="67.5" y1="128.8" x2="67.9" y2="128.8" stroke="#1a1a2e" stroke-width="1.2" stroke-linecap="round"/><line x1="67.2" y1="128.8" x2="67.5" y2="128.8" stroke="#1a1a2e" stroke-width="1.2" stroke-linecap="round"/><line x1="48.0" y1="128.8" x2="67.2" y2="128.8" stroke="#1a1a2e" stroke-width="1.2" stroke-linecap="round"/><line x1="324.1" y1="128.8" x2="332.5" y2="128.8" stroke="#1a1a2e" stroke-width="1.2" stroke-linecap="round"/><line x1="332.5" y1="128.8" x2="420.9" y2="128.8" stroke="#1a1a2e" stroke-width="1.2" stroke-linecap="round"/><line x1="420.9" y1="128.8" x2="421.8" y2="128.8" stroke="#1a1a2e" stroke-width="1.2" stroke-linecap="round"/><line x1="421.8" y1="128.8" x2="422.6" y2="128.8" stroke="#1a1a2e" stroke-width="1.2" stroke-linecap="round"/><line x1="422.6" y1="128.8" x2="423.4" y2="128.8" stroke="#1a1a2e" stroke-width="1.2" stroke-linecap="round"/><line x1="423.4" y1="128.8" x2="424.2" y2="128.8" stroke="#1a1a2e" stroke-width="1.2" stroke-linecap="round"/><line x1="424.2" y1="128.8" x2="425.0" y2="128.8" stroke="#1a1a2e" stroke-width="1.2" stroke-linecap="round"/><line x1="425.0" y1="128.8" x2="425.8" y2="128.8" stroke="#1a1a2e" stroke-width="1.2" stroke-linecap="round"/><line x1="425.8" y1="128.8" x2="426.5" y2="128.8" stroke="#1a1a2e" stroke-width="1.2" stroke-linecap="round"/><line x1="426.5" y1="128.8" x2="427.2" y2="128.8" stroke="#1a1a2e" stroke-width="1.2" stroke-linecap="round"/><line x1="427.2" y1="128.8" x2="427.9" y2="128.8" stroke="#1a1a2e" stroke-width="1.2" stroke-linecap="round"/><line x1="427.9" y1="128.8" x2="428.5" y2="128.8" stroke="#1a1a2e" stroke-width="1.2" stroke-linecap="round"/><line x1="428.5" y1="128.8" x2="429.1" y2="128.8" stroke="#1a1a2e" stroke-width="1.2" stroke-linecap="round"/><line x1="429.1" y1="128.8" x2="429.7" y2="128.8" stroke="#1a1a2e" stroke-width="1.2" stroke-linecap="round"/><line x1="429.7" y1="128.8" x2="430.3" y2="128.8" stroke="#1a1a2e" stroke-width="1.2" stroke-linecap="round"/><line x1="430.3" y1="128.8" x2="430.8" y2="128.8" stroke="#1a1a2e" stroke-width="1.2" stroke-linecap="round"/><line x1="430.8" y1="128.8" x2="431.3" y2="128.8" stroke="#1a1a2e" stroke-width="1.2" stroke-linecap="round"/><line x1="431.3" y1="128.8" x2="431.7" y2="128.8" stroke="#1a1a2e" stroke-width="1.2" stroke-linecap="round"/><line x1="433.1" y1="128.8" x2="452.0" y2="128.8" stroke="#1a1a2e" stroke-width="1.2" stroke-linecap="round"/><line x1="432.8" y1="128.8" x2="433.1" y2="128.8" stroke="#1a1a2e" stroke-width="1.2" stroke-linecap="round"/><line x1="432.5" y1="128.8" x2="432.8" y2="128.8" stroke="#1a1a2e" stroke-width="1.2" stroke-linecap="round"/><line x1="432.1" y1="128.8" x2="432.5" y2="128.8" stroke="#1a1a2e" stroke-width="1.2" stroke-linecap="round"/><line x1="431.7" y1="128.8" x2="432.1" y2="128.8" stroke="#1a1a2e" stroke-width="1.2" stroke-linecap="round"/><line x1="48.0" y1="95.1" x2="48.0" y2="116.2" stroke="#1a1a2e" stroke-width="1.2" stroke-linecap="round"/><line x1="48.0" y1="116.2" x2="48.0" y2="128.8" stroke="#1a1a2e" stroke-width="1.2" stroke-linecap="round"/><line x1="77.1" y1="95.1" x2="76.8" y2="95.1" stroke="#1a1a2e" stroke-width="1.2" stroke-linecap="round"/><line x1="77.5" y1="95.1" x2="77.1" y2="95.1" stroke="#1a1a2e" stroke-width="1.2" stroke-linecap="round"/><line x1="76.8" y1="95.1" x2="76.5" y2="95.1" stroke="#1a1a2e" stroke-width="1.2" stroke-linecap="round"/><line x1="77.8" y1="95.1" x2="77.5" y2="95.1" stroke="#1a1a2e" stroke-width="1.2" stroke-linecap="round"/><line x1="76.5" y1="95.1" x2="76.2" y2="95.1" stroke="#1a1a2e" stroke-width="1.2" stroke-linecap="round"/><line x1="78.2" y1="95.1" x2="77.8" y2="95.1" stroke="#1a1a2e" stroke-width="1.2" stroke-linecap="round"/><line x1="76.2" y1="95.1" x2="75.9" y2="95.1" stroke="#1a1a2e" stroke-width="1.2" stroke-linecap="round"/><line x1="78.6" y1="95.1" x2="78.2" y2="95.1" stroke="#1a1a2e" stroke-width="1.2" stroke-linecap="round"/><line x1="75.9" y1="95.1" x2="75.6" y2="95.1" stroke="#1a1a2e" stroke-width="1.2" stroke-linecap="round"/><line x1="79.0" y1="95.1" x2="78.6" y2="95.1" stroke="#1a1a2e" stroke-width="1.2" stroke-linecap="round"/><line x1="75.6" y1="95.1" x2="75.3" y2="95.1" stroke="#1a1a2e" stroke-width="1.2" stroke-linecap="round"/><line x1="79.3" y1="95.1" x2="79.0" y2="95.1" stroke="#1a1a2e" stroke-width="1.2" stroke-linecap="round"/><line x1="75.3" y1="95.1" x2="75.1" y2="95.1" stroke="#1a1a2e" stroke-width="1.2" stroke-linecap="round"/><line x1="79.7" y1="95.1" x2="79.3" y2="95.1" stroke="#1a1a2e" stroke-width="1.2" stroke-linecap="round"/><line x1="75.1" y1="95.1" x2="74.8" y2="95.1" stroke="#1a1a2e" stroke-width="1.2" stroke-linecap="round"/><line x1="80.1" y1="95.1" x2="79.7" y2="95.1" stroke="#1a1a2e" stroke-width="1.2" stroke-linecap="round"/><line x1="74.8" y1="95.1" x2="74.6" y2="95.1" stroke="#1a1a2e" stroke-width="1.2" stroke-linecap="round"/><line x1="80.5" y1="95.1" x2="80.1" y2="95.1" stroke="#1a1a2e" stroke-width="1.2" stroke-linecap="round"/><line x1="81.0" y1="95.1" x2="80.5" y2="95.1" stroke="#1a1a2e" stroke-width="1.2" stroke-linecap="round"/><line x1="81.4" y1="95.1" x2="81.0" y2="95.1" stroke="#1a1a2e" stroke-width="1.2" stroke-linecap="round"/><line x1="81.8" y1="95.1" x2="81.4" y2="95.1" stroke="#1a1a2e" stroke-width="1.2" stroke-linecap="round"/><line x1="82.2" y1="95.1" x2="81.8" y2="95.1" stroke="#1a1a2e" stroke-width="1.2" stroke-linecap="round"/><line x1="82.6" y1="95.1" x2="82.2" y2="95.1" stroke="#1a1a2e" stroke-width="1.2" stroke-linecap="round"/><line x1="83.0" y1="95.1" x2="82.6" y2="95.1" stroke="#1a1a2e" stroke-width="1.2" stroke-linecap="round"/><line x1="83.4" y1="95.1" x2="83.0" y2="95.1" stroke="#1a1a2e" stroke-width="1.2" stroke-linecap="round"/><line x1="83.8" y1="95.1" x2="83.4" y2="95.1" stroke="#1a1a2e" stroke-width="1.2" stroke-linecap="round"/><line x1="84.1" y1="95.1" x2="83.8" y2="95.1" stroke="#1a1a2e" stroke-width="1.2" stroke-linecap="round"/><line x1="84.5" y1="95.1" x2="84.1" y2="95.1" stroke="#1a1a2e" stroke-width="1.2" stroke-linecap="round"/><line x1="84.9" y1="95.1" x2="84.5" y2="95.1" stroke="#1a1a2e" stroke-width="1.2" stroke-linecap="round"/><line x1="85.2" y1="95.1" x2="84.9" y2="95.1" stroke="#1a1a2e" stroke-width="1.2" stroke-linecap="round"/><line x1="85.6" y1="95.1" x2="85.2" y2="95.1" stroke="#1a1a2e" stroke-width="1.2" stroke-linecap="round"/><line x1="85.9" y1="95.1" x2="85.6" y2="95.1" stroke="#1a1a2e" stroke-width="1.2" stroke-linecap="round"/><line x1="86.2" y1="95.1" x2="85.9" y2="95.1" stroke="#1a1a2e" stroke-width="1.2" stroke-linecap="round"/><line x1="86.5" y1="95.1" x2="86.2" y2="95.1" stroke="#1a1a2e" stroke-width="1.2" stroke-linecap="round"/><line x1="86.8" y1="95.1" x2="86.5" y2="95.1" stroke="#1a1a2e" stroke-width="1.2" stroke-linecap="round"/><line x1="87.1" y1="95.1" x2="86.8" y2="95.1" stroke="#1a1a2e" stroke-width="1.2" stroke-linecap="round"/><line x1="87.3" y1="95.1" x2="87.1" y2="95.1" stroke="#1a1a2e" stroke-width="1.2" stroke-linecap="round"/><line x1="74.6" y1="95.1" x2="48.0" y2="95.1" stroke="#1a1a2e" stroke-width="1.2" stroke-linecap="round"/><line x1="87.3" y1="95.1" x2="282.8" y2="95.1" stroke="#1a1a2e" stroke-width="1.2" stroke-linecap="round"/><line x1="412.7" y1="95.1" x2="282.8" y2="95.1" stroke="#1a1a2e" stroke-width="1.2" stroke-linecap="round"/><line x1="412.9" y1="95.1" x2="412.7" y2="95.1" stroke="#1a1a2e" stroke-width="1.2" stroke-linecap="round"/><line x1="413.2" y1="95.1" x2="412.9" y2="95.1" stroke="#1a1a2e" stroke-width="1.2" stroke-linecap="round"/><line x1="413.5" y1="95.1" x2="413.2" y2="95.1" stroke="#1a1a2e" stroke-width="1.2" stroke-linecap="round"/><line x1="413.8" y1="95.1" x2="413.5" y2="95.1" stroke="#1a1a2e" stroke-width="1.2" stroke-linecap="round"/><line x1="414.1" y1="95.1" x2="413.8" y2="95.1" stroke="#1a1a2e" stroke-width="1.2" stroke-linecap="round"/><line x1="414.4" y1="95.1" x2="414.1" y2="95.1" stroke="#1a1a2e" stroke-width="1.2" stroke-linecap="round"/><line x1="414.8" y1="95.1" x2="414.4" y2="95.1" stroke="#1a1a2e" stroke-width="1.2" stroke-linecap="round"/><line x1="415.1" y1="95.1" x2="414.8" y2="95.1" stroke="#1a1a2e" stroke-width="1.2" stroke-linecap="round"/><line x1="415.5" y1="95.1" x2="415.1" y2="95.1" stroke="#1a1a2e" stroke-width="1.2" stroke-linecap="round"/><line x1="415.9" y1="95.1" x2="415.5" y2="95.1" stroke="#1a1a2e" stroke-width="1.2" stroke-linecap="round"/><line x1="416.2" y1="95.1" x2="415.9" y2="95.1" stroke="#1a1a2e" stroke-width="1.2" stroke-linecap="round"/><line x1="416.6" y1="95.1" x2="416.2" y2="95.1" stroke="#1a1a2e" stroke-width="1.2" stroke-linecap="round"/><line x1="417.0" y1="95.1" x2="416.6" y2="95.1" stroke="#1a1a2e" stroke-width="1.2" stroke-linecap="round"/><line x1="417.4" y1="95.1" x2="417.0" y2="95.1" stroke="#1a1a2e" stroke-width="1.2" stroke-linecap="round"/><line x1="417.8" y1="95.1" x2="417.4" y2="95.1" stroke="#1a1a2e" stroke-width="1.2" stroke-linecap="round"/><line x1="418.2" y1="95.1" x2="417.8" y2="95.1" stroke="#1a1a2e" stroke-width="1.2" stroke-linecap="round"/><line x1="418.6" y1="95.1" x2="418.2" y2="95.1" stroke="#1a1a2e" stroke-width="1.2" stroke-linecap="round"/><line x1="419.0" y1="95.1" x2="418.6" y2="95.1" stroke="#1a1a2e" stroke-width="1.2" stroke-linecap="round"/><line x1="419.5" y1="95.1" x2="419.0" y2="95.1" stroke="#1a1a2e" stroke-width="1.2" stroke-linecap="round"/><line x1="419.9" y1="95.1" x2="419.5" y2="95.1" stroke="#1a1a2e" stroke-width="1.2" stroke-linecap="round"/><line x1="420.3" y1="95.1" x2="419.9" y2="95.1" stroke="#1a1a2e" stroke-width="1.2" stroke-linecap="round"/><line x1="420.7" y1="95.1" x2="420.3" y2="95.1" stroke="#1a1a2e" stroke-width="1.2" stroke-linecap="round"/><line x1="421.0" y1="95.1" x2="420.7" y2="95.1" stroke="#1a1a2e" stroke-width="1.2" stroke-linecap="round"/><line x1="421.4" y1="95.1" x2="421.0" y2="95.1" stroke="#1a1a2e" stroke-width="1.2" stroke-linecap="round"/><line x1="421.8" y1="95.1" x2="421.4" y2="95.1" stroke="#1a1a2e" stroke-width="1.2" stroke-linecap="round"/><line x1="422.2" y1="95.1" x2="421.8" y2="95.1" stroke="#1a1a2e" stroke-width="1.2" stroke-linecap="round"/><line x1="422.5" y1="95.1" x2="422.2" y2="95.1" stroke="#1a1a2e" stroke-width="1.2" stroke-linecap="round"/><line x1="422.9" y1="95.1" x2="422.5" y2="95.1" stroke="#1a1a2e" stroke-width="1.2" stroke-linecap="round"/><line x1="423.2" y1="95.1" x2="422.9" y2="95.1" stroke="#1a1a2e" stroke-width="1.2" stroke-linecap="round"/><line x1="423.5" y1="95.1" x2="423.2" y2="95.1" stroke="#1a1a2e" stroke-width="1.2" stroke-linecap="round"/><line x1="423.8" y1="95.1" x2="423.5" y2="95.1" stroke="#1a1a2e" stroke-width="1.2" stroke-linecap="round"/><line x1="424.1" y1="95.1" x2="423.8" y2="95.1" stroke="#1a1a2e" stroke-width="1.2" stroke-linecap="round"/><line x1="424.4" y1="95.1" x2="424.1" y2="95.1" stroke="#1a1a2e" stroke-width="1.2" stroke-linecap="round"/><line x1="424.7" y1="95.1" x2="424.4" y2="95.1" stroke="#1a1a2e" stroke-width="1.2" stroke-linecap="round"/><line x1="424.9" y1="95.1" x2="424.7" y2="95.1" stroke="#1a1a2e" stroke-width="1.2" stroke-linecap="round"/><line x1="425.2" y1="95.1" x2="424.9" y2="95.1" stroke="#1a1a2e" stroke-width="1.2" stroke-linecap="round"/><line x1="425.4" y1="95.1" x2="425.2" y2="95.1" stroke="#1a1a2e" stroke-width="1.2" stroke-linecap="round"/><line x1="452.0" y1="95.1" x2="425.4" y2="95.1" stroke="#1a1a2e" stroke-width="1.2" stroke-linecap="round"/><line x1="175.9" y1="167.8" x2="175.9" y2="128.8" stroke="#1a1a2e" stroke-width="1.2" stroke-linecap="round"/><line x1="175.9" y1="364.5" x2="175.9" y2="371.0" stroke="#1a1a2e" stroke-width="1.2" stroke-linecap="round"/><line x1="175.9" y1="167.8" x2="175.9" y2="364.5" stroke="#1a1a2e" stroke-width="1.2" stroke-linecap="round"/><line x1="175.9" y1="371.0" x2="175.9" y2="404.9" stroke="#1a1a2e" stroke-width="1.2" stroke-linecap="round"/><line x1="324.1" y1="128.8" x2="324.1" y2="167.8" stroke="#1a1a2e" stroke-width="1.2" stroke-linecap="round"/><line x1="324.1" y1="371.0" x2="324.1" y2="364.5" stroke="#1a1a2e" stroke-width="1.2" stroke-linecap="round"/><line x1="324.1" y1="364.5" x2="324.1" y2="167.8" stroke="#1a1a2e" stroke-width="1.2" stroke-linecap="round"/><line x1="324.1" y1="404.9" x2="324.1" y2="371.0" stroke="#1a1a2e" stroke-width="1.2" stroke-linecap="round"/><line x1="268.1" y1="404.9" x2="175.9" y2="404.9" stroke="#1a1a2e" stroke-width="1.2" stroke-linecap="round"/><line x1="268.1" y1="404.9" x2="324.1" y2="404.9" stroke="#1a1a2e" stroke-width="1.2" stroke-linecap="round"/></g><text x="48.0" y="418.9" text-anchor="start" font-size="9" fill="#777" font-family="monospace">-30.0</text><text x="452.0" y="418.9" text-anchor="end" font-size="9" fill="#777" font-family="monospace">30.0</text><text x="44.0" y="404.9" text-anchor="end" font-size="9" fill="#777" font-family="monospace">-41.0</text><text x="44.0" y="95.1" text-anchor="end" font-size="9" fill="#777" font-family="monospace">5.0</text><text x="250.0" y="494.0" text-anchor="middle" font-size="9" fill="#777" font-family="monospace">X (mm)</text><text x="12" y="250.0" text-anchor="middle" font-size="9" fill="#777" font-family="sans-serif" transform="rotate(-90 12 250.0)">Y (mm)</text><line x1="384.7" y1="430.8666666666667" x2="452.0" y2="430.8666666666667" stroke="#999" stroke-width="1.5"/><text x="418.3" y="441.8666666666667" text-anchor="middle" font-size="9" fill="#999" font-family="sans-serif">10 mm</text></svg>