<svg xmlns="http://www.w3.org/2000/svg" width="500" height="500"><rect width="500" height="500" fill="white" rx="3"/><rect x="48.0" y="135.5" width="404.0" height="228.9" fill="#f5f5f7" stroke="#e0e0e0" stroke-width="0.5"/><text x="250" y="18" text-anchor="middle" font-size="11" font-weight="600" fill="#333" font-family="sans-serif">Z = 31.53 mm  ·  XY plane</text><g><line x1="283.7" y1="169.2" x2="283.7" y2="289.4" stroke="#1a1a2e" stroke-width="1.2" stroke-linecap="round"/><line x1="283.7" y1="289.4" x2="283.7" y2="364.5" stroke="#1a1a2e" stroke-width="1.2" stroke-linecap="round"/><line x1="293.9" y1="364.5" x2="310.6" y2="364.5" stroke="#1a1a2e" stroke-width="1.2" stroke-linecap="round"/><line x1="283.7" y1="364.5" x2="293.9" y2="364.5" stroke="#1a1a2e" stroke-width="1.2" stroke-linecap="round"/><line x1="242.2" y1="169.2" x2="283.7" y2="169.2" stroke="#1a1a2e" stroke-width="1.2" stroke-linecap="round"/><line x1="216.3" y1="169.2" x2="242.2" y2="169.2" stroke="#1a1a2e" stroke-width="1.2" stroke-linecap="round"/><line x1="310.6" y1="289.4" x2="310.6" y2="169.2" stroke="#1a1a2e" stroke-width="1.2" stroke-linecap="round"/><line x1="310.6" y1="364.5" x2="310.6" y2="289.4" stroke="#1a1a2e" stroke-width="1.2" stroke-linecap="round"/><line x1="452.0" y1="148.0" x2="452.0" y2="135.5" stroke="#1a1a2e" stroke-width="1.2" stroke-linecap="round"/><line x1="452.0" y1="169.2" x2="452.0" y2="148.0" stroke="#1a1a2e" stroke-width="1.2" stroke-linecap="round"/><line x1="88.7" y1="169.2" x2="89.9" y2="169.2" stroke="#1a1a2e" stroke-width="1.2" stroke-linecap="round"/><line x1="89.9" y1="169.2" x2="91.1" y2="169.2" stroke="#1a1a2e" stroke-width="1.2" stroke-linecap="round"/><line x1="87.6" y1="169.2" x2="88.7" y2="169.2" stroke="#1a1a2e" stroke-width="1.2" stroke-linecap="round"/><line x1="91.1" y1="169.2" x2="92.3" y2="169.2" stroke="#1a1a2e" stroke-width="1.2" stroke-linecap="round"/><line x1="86.6" y1="169.2" x2="87.6" y2="169.2" stroke="#1a1a2e" stroke-width="1.2" stroke-linecap="round"/><line x1="92.3" y1="169.2" x2="93.6" y2="169.2" stroke="#1a1a2e" stroke-width="1.2" stroke-linecap="round"/><line x1="85.6" y1="169.2" x2="86.6" y2="169.2" stroke="#1a1a2e" stroke-width="1.2" stroke-linecap="round"/><line x1="93.6" y1="169.2" x2="94.9" y2="169.2" stroke="#1a1a2e" stroke-width="1.2" stroke-linecap="round"/><line x1="84.7" y1="169.2" x2="85.6" y2="169.2" stroke="#1a1a2e" stroke-width="1.2" stroke-linecap="round"/><line x1="94.9" y1="169.2" x2="96.2" y2="169.2" stroke="#1a1a2e" stroke-width="1.2" stroke-linecap="round"/><line x1="83.8" y1="169.2" x2="84.7" y2="169.2" stroke="#1a1a2e" stroke-width="1.2" stroke-linecap="round"/><line x1="96.2" y1="169.2" x2="97.6" y2="169.2" stroke="#1a1a2e" stroke-width="1.2" stroke-linecap="round"/><line x1="83.0" y1="169.2" x2="83.8" y2="169.2" stroke="#1a1a2e" stroke-width="1.2" stroke-linecap="round"/><line x1="97.6" y1="169.2" x2="99.0" y2="169.2" stroke="#1a1a2e" stroke-width="1.2" stroke-linecap="round"/><line x1="82.3" y1="169.2" x2="83.0" y2="169.2" stroke="#1a1a2e" stroke-width="1.2" stroke-linecap="round"/><line x1="99.0" y1="169.2" x2="100.5" y2="169.2" stroke="#1a1a2e" stroke-width="1.2" stroke-linecap="round"/><line x1="100.5" y1="169.2" x2="116.1" y2="169.2" stroke="#1a1a2e" stroke-width="1.2" stroke-linecap="round"/><line x1="81.6" y1="169.2" x2="82.3" y2="169.2" stroke="#1a1a2e" stroke-width="1.2" stroke-linecap="round"/><line x1="116.1" y1="169.2" x2="117.0" y2="169.2" stroke="#1a1a2e" stroke-width="1.2" stroke-linecap="round"/><line x1="81.0" y1="169.2" x2="81.6" y2="169.2" stroke="#1a1a2e" stroke-width="1.2" stroke-linecap="round"/><line x1="117.0" y1="169.2" x2="117.9" y2="169.2" stroke="#1a1a2e" stroke-width="1.2" stroke-linecap="round"/><line x1="80.4" y1="169.2" x2="81.0" y2="169.2" stroke="#1a1a2e" stroke-width="1.2" stroke-linecap="round"/><line x1="117.9" y1="169.2" x2="118.9" y2="169.2" stroke="#1a1a2e" stroke-width="1.2" stroke-linecap="round"/><line x1="118.9" y1="169.2" x2="120.0" y2="169.2" stroke="#1a1a2e" stroke-width="1.2" stroke-linecap="round"/><line x1="120.0" y1="169.2" x2="121.1" y2="169.2" stroke="#1a1a2e" stroke-width="1.2" stroke-linecap="round"/><line x1="121.1" y1="169.2" x2="122.3" y2="169.2" stroke="#1a1a2e" stroke-width="1.2" stroke-linecap="round"/><line x1="122.3" y1="169.2" x2="123.6" y2="169.2" stroke="#1a1a2e" stroke-width="1.2" stroke-linecap="round"/><line x1="123.6" y1="169.2" x2="124.8" y2="169.2" stroke="#1a1a2e" stroke-width="1.2" stroke-linecap="round"/><line x1="124.8" y1="169.2" x2="126.2" y2="169.2" stroke="#1a1a2e" stroke-width="1.2" stroke-linecap="round"/><line x1="126.2" y1="169.2" x2="127.5" y2="169.2" stroke="#1a1a2e" stroke-width="1.2" stroke-linecap="round"/><line x1="127.5" y1="169.2" x2="128.9" y2="169.2" stroke="#1a1a2e" stroke-width="1.2" stroke-linecap="round"/><line x1="128.9" y1="169.2" x2="130.3" y2="169.2" stroke="#1a1a2e" stroke-width="1.2" stroke-linecap="round"/><line x1="130.3" y1="169.2" x2="131.8" y2="169.2" stroke="#1a1a2e" stroke-width="1.2" stroke-linecap="round"/><line x1="131.8" y1="169.2" x2="133.2" y2="169.2" stroke="#1a1a2e" stroke-width="1.2" stroke-linecap="round"/><line x1="133.2" y1="169.2" x2="134.6" y2="169.2" stroke="#1a1a2e" stroke-width="1.2" stroke-linecap="round"/><line x1="134.6" y1="169.2" x2="136.0" y2="169.2" stroke="#1a1a2e" stroke-width="1.2" stroke-linecap="round"/><line x1="136.0" y1="169.2" x2="137.4" y2="169.2" stroke="#1a1a2e" stroke-width="1.2" stroke-linecap="round"/><line x1="137.4" y1="169.2" x2="138.8" y2="169.2" stroke="#1a1a2e" stroke-width="1.2" stroke-linecap="round"/><line x1="138.8" y1="169.2" x2="140.1" y2="169.2" stroke="#1a1a2e" stroke-width="1.2" stroke-linecap="round"/><line x1="140.1" y1="169.2" x2="141.5" y2="169.2" stroke="#1a1a2e" stroke-width="1.2" stroke-linecap="round"/><line x1="141.5" y1="169.2" x2="142.7" y2="169.2" stroke="#1a1a2e" stroke-width="1.2" stroke-linecap="round"/><line x1="142.7" y1="169.2" x2="144.0" y2="169.2" stroke="#1a1a2e" stroke-width="1.2" stroke-linecap="round"/><line x1="144.0" y1="169.2" x2="145.2" y2="169.2" stroke="#1a1a2e" stroke-width="1.2" stroke-linecap="round"/><line x1="146.3" y1="169.2" x2="149.4" y2="169.2" stroke="#1a1a2e" stroke-width="1.2" stroke-linecap="round"/><line x1="145.2" y1="169.2" x2="146.3" y2="169.2" stroke="#1a1a2e" stroke-width="1.2" stroke-linecap="round"/><line x1="149.4" y1="169.2" x2="150.6" y2="169.2" stroke="#1a1a2e" stroke-width="1.2" stroke-linecap="round"/><line x1="150.6" y1="169.2" x2="151.8" y2="169.2" stroke="#1a1a2e" stroke-width="1.2" stroke-linecap="round"/><line x1="151.8" y1="169.2" x2="152.9" y2="169.2" stroke="#1a1a2e" stroke-width="1.2" stroke-linecap="round"/><line x1="152.9" y1="169.2" x2="153.9" y2="169.2" stroke="#1a1a2e" stroke-width="1.2" stroke-linecap="round"/><line x1="153.9" y1="169.2" x2="154.9" y2="169.2" stroke="#1a1a2e" stroke-width="1.2" stroke-linecap="round"/><line x1="48.0" y1="169.2" x2="80.4" y2="169.2" stroke="#1a1a2e" stroke-width="1.2" stroke-linecap="round"/><line x1="154.9" y1="169.2" x2="155.8" y2="169.2" stroke="#1a1a2e" stroke-width="1.2" stroke-linecap="round"/><line x1="155.8" y1="169.2" x2="156.7" y2="169.2" stroke="#1a1a2e" stroke-width="1.2" stroke-linecap="round"/><line x1="156.7" y1="169.2" x2="157.5" y2="169.2" stroke="#1a1a2e" stroke-width="1.2" stroke-linecap="round"/><line x1="157.5" y1="169.2" x2="158.2" y2="169.2" stroke="#1a1a2e" stroke-width="1.2" stroke-linecap="round"/><line x1="158.2" y1="169.2" x2="158.9" y2="169.2" stroke="#1a1a2e" stroke-width="1.2" stroke-linecap="round"/><line x1="353.7" y1="169.2" x2="354.8" y2="169.2" stroke="#1a1a2e" stroke-width="1.2" stroke-linecap="round"/><line x1="350.6" y1="169.2" x2="353.7" y2="169.2" stroke="#1a1a2e" stroke-width="1.2" stroke-linecap="round"/><line x1="354.8" y1="169.2" x2="356.0" y2="169.2" stroke="#1a1a2e" stroke-width="1.2" stroke-linecap="round"/><line x1="349.4" y1="169.2" x2="350.6" y2="169.2" stroke="#1a1a2e" stroke-width="1.2" stroke-linecap="round"/><line x1="356.0" y1="169.2" x2="357.3" y2="169.2" stroke="#1a1a2e" stroke-width="1.2" stroke-linecap="round"/><line x1="348.2" y1="169.2" x2="349.4" y2="169.2" stroke="#1a1a2e" stroke-width="1.2" stroke-linecap="round"/><line x1="357.3" y1="169.2" x2="358.5" y2="169.2" stroke="#1a1a2e" stroke-width="1.2" stroke-linecap="round"/><line x1="347.1" y1="169.2" x2="348.2" y2="169.2" stroke="#1a1a2e" stroke-width="1.2" stroke-linecap="round"/><line x1="358.5" y1="169.2" x2="359.9" y2="169.2" stroke="#1a1a2e" stroke-width="1.2" stroke-linecap="round"/><line x1="346.1" y1="169.2" x2="347.1" y2="169.2" stroke="#1a1a2e" stroke-width="1.2" stroke-linecap="round"/><line x1="359.9" y1="169.2" x2="361.2" y2="169.2" stroke="#1a1a2e" stroke-width="1.2" stroke-linecap="round"/><line x1="345.1" y1="169.2" x2="346.1" y2="169.2" stroke="#1a1a2e" stroke-width="1.2" stroke-linecap="round"/><line x1="361.2" y1="169.2" x2="362.6" y2="169.2" stroke="#1a1a2e" stroke-width="1.2" stroke-linecap="round"/><line x1="344.2" y1="169.2" x2="345.1" y2="169.2" stroke="#1a1a2e" stroke-width="1.2" stroke-linecap="round"/><line x1="362.6" y1="169.2" x2="364.0" y2="169.2" stroke="#1a1a2e" stroke-width="1.2" stroke-linecap="round"/><line x1="343.3" y1="169.2" x2="344.2" y2="169.2" stroke="#1a1a2e" stroke-width="1.2" stroke-linecap="round"/><line x1="364.0" y1="169.2" x2="365.4" y2="169.2" stroke="#1a1a2e" stroke-width="1.2" stroke-linecap="round"/><line x1="342.5" y1="169.2" x2="343.3" y2="169.2" stroke="#1a1a2e" stroke-width="1.2" stroke-linecap="round"/><line x1="365.4" y1="169.2" x2="366.8" y2="169.2" stroke="#1a1a2e" stroke-width="1.2" stroke-linecap="round"/><line x1="341.8" y1="169.2" x2="342.5" y2="169.2" stroke="#1a1a2e" stroke-width="1.2" stroke-linecap="round"/><line x1="366.8" y1="169.2" x2="368.2" y2="169.2" stroke="#1a1a2e" stroke-width="1.2" stroke-linecap="round"/><line x1="341.1" y1="169.2" x2="341.8" y2="169.2" stroke="#1a1a2e" stroke-width="1.2" stroke-linecap="round"/><line x1="368.2" y1="169.2" x2="369.7" y2="169.2" stroke="#1a1a2e" stroke-width="1.2" stroke-linecap="round"/><line x1="369.7" y1="169.2" x2="371.1" y2="169.2" stroke="#1a1a2e" stroke-width="1.2" stroke-linecap="round"/><line x1="371.1" y1="169.2" x2="372.5" y2="169.2" stroke="#1a1a2e" stroke-width="1.2" stroke-linecap="round"/><line x1="372.5" y1="169.2" x2="373.8" y2="169.2" stroke="#1a1a2e" stroke-width="1.2" stroke-linecap="round"/><line x1="373.8" y1="169.2" x2="375.2" y2="169.2" stroke="#1a1a2e" stroke-width="1.2" stroke-linecap="round"/><line x1="375.2" y1="169.2" x2="376.4" y2="169.2" stroke="#1a1a2e" stroke-width="1.2" stroke-linecap="round"/><line x1="376.4" y1="169.2" x2="377.7" y2="169.2" stroke="#1a1a2e" stroke-width="1.2" stroke-linecap="round"/><line x1="377.7" y1="169.2" x2="378.9" y2="169.2" stroke="#1a1a2e" stroke-width="1.2" stroke-linecap="round"/><line x1="378.9" y1="169.2" x2="380.0" y2="169.2" stroke="#1a1a2e" stroke-width="1.2" stroke-linecap="round"/><line x1="380.0" y1="169.2" x2="381.1" y2="169.2" stroke="#1a1a2e" stroke-width="1.2" stroke-linecap="round"/><line x1="381.1" y1="169.2" x2="382.1" y2="169.2" stroke="#1a1a2e" stroke-width="1.2" stroke-linecap="round"/><line x1="382.1" y1="169.2" x2="383.0" y2="169.2" stroke="#1a1a2e" stroke-width="1.2" stroke-linecap="round"/><line x1="383.9" y1="169.2" x2="399.5" y2="169.2" stroke="#1a1a2e" stroke-width="1.2" stroke-linecap="round"/><line x1="383.0" y1="169.2" x2="383.9" y2="169.2" stroke="#1a1a2e" stroke-width="1.2" stroke-linecap="round"/><line x1="399.5" y1="169.2" x2="401.0" y2="169.2" stroke="#1a1a2e" stroke-width="1.2" stroke-linecap="round"/><line x1="401.0" y1="169.2" x2="402.4" y2="169.2" stroke="#1a1a2e" stroke-width="1.2" stroke-linecap="round"/><line x1="402.4" y1="169.2" x2="403.8" y2="169.2" stroke="#1a1a2e" stroke-width="1.2" stroke-linecap="round"/><line x1="403.8" y1="169.2" x2="405.1" y2="169.2" stroke="#1a1a2e" stroke-width="1.2" stroke-linecap="round"/><line x1="405.1" y1="169.2" x2="406.4" y2="169.2" stroke="#1a1a2e" stroke-width="1.2" stroke-linecap="round"/><line x1="406.4" y1="169.2" x2="407.7" y2="169.2" stroke="#1a1a2e" stroke-width="1.2" stroke-linecap="round"/><line x1="407.7" y1="169.2" x2="408.9" y2="169.2" stroke="#1a1a2e" stroke-width="1.2" stroke-linecap="round"/><line x1="408.9" y1="169.2" x2="410.1" y2="169.2" stroke="#1a1a2e" stroke-width="1.2" stroke-linecap="round"/><line x1="410.1" y1="169.2" x2="411.3" y2="169.2" stroke="#1a1a2e" stroke-width="1.2" stroke-linecap="round"/><line x1="411.3" y1="169.2" x2="412.4" y2="169.2" stroke="#1a1a2e" stroke-width="1.2" stroke-linecap="round"/><line x1="412.4" y1="169.2" x2="413.4" y2="169.2" stroke="#1a1a2e" stroke-width="1.2" stroke-linecap="round"/><line x1="413.4" y1="169.2" x2="414.4" y2="169.2" stroke="#1a1a2e" stroke-width="1.2" stroke-linecap="round"/><line x1="414.4" y1="169.2" x2="415.3" y2="169.2" stroke="#1a1a2e" stroke-width="1.2" stroke-linecap="round"/><line x1="415.3" y1="169.2" x2="416.2" y2="169.2" stroke="#1a1a2e" stroke-width="1.2" stroke-linecap="round"/><line x1="416.2" y1="169.2" x2="417.0" y2="169.2" stroke="#1a1a2e" stroke-width="1.2" stroke-linecap="round"/><line x1="417.0" y1="169.2" x2="417.7" y2="169.2" stroke="#1a1a2e" stroke-width="1.2" stroke-linecap="round"/><line x1="420.0" y1="169.2" x2="452.0" y2="169.2" stroke="#1a1a2e" stroke-width="1.2" stroke-linecap="round"/><line x1="419.6" y1="169.2" x2="420.0" y2="169.2" stroke="#1a1a2e" stroke-width="1.2" stroke-linecap="round"/><line x1="419.0" y1="169.2" x2="419.6" y2="169.2" stroke="#1a1a2e" stroke-width="1.2" stroke-linecap="round"/><line x1="418.4" y1="169.2" x2="419.0" y2="169.2" stroke="#1a1a2e" stroke-width="1.2" stroke-linecap="round"/><line x1="417.7" y1="169.2" x2="418.4" y2="169.2" stroke="#1a1a2e" stroke-width="1.2" stroke-linecap="round"/><line x1="161.0" y1="169.2" x2="189.4" y2="169.2" stroke="#1a1a2e" stroke-width="1.2" stroke-linecap="round"/><line x1="160.6" y1="169.2" x2="161.0" y2="169.2" stroke="#1a1a2e" stroke-width="1.2" stroke-linecap="round"/><line x1="160.1" y1="169.2" x2="160.6" y2="169.2" stroke="#1a1a2e" stroke-width="1.2" stroke-linecap="round"/><line x1="159.5" y1="169.2" x2="160.1" y2="169.2" stroke="#1a1a2e" stroke-width="1.2" stroke-linecap="round"/><line x1="158.9" y1="169.2" x2="159.5" y2="169.2" stroke="#1a1a2e" stroke-width="1.2" stroke-linecap="round"/><line x1="339.0" y1="169.2" x2="310.6" y2="169.2" stroke="#1a1a2e" stroke-width="1.2" stroke-linecap="round"/><line x1="339.4" y1="169.2" x2="339.0" y2="169.2" stroke="#1a1a2e" stroke-width="1.2" stroke-linecap="round"/><line x1="339.9" y1="169.2" x2="339.4" y2="169.2" stroke="#1a1a2e" stroke-width="1.2" stroke-linecap="round"/><line x1="340.5" y1="169.2" x2="339.9" y2="169.2" stroke="#1a1a2e" stroke-width="1.2" stroke-linecap="round"/><line x1="341.1" y1="169.2" x2="340.5" y2="169.2" stroke="#1a1a2e" stroke-width="1.2" stroke-linecap="round"/><line x1="216.3" y1="289.4" x2="216.3" y2="169.2" stroke="#1a1a2e" stroke-width="1.2" stroke-linecap="round"/><line x1="216.3" y1="364.5" x2="216.3" y2="289.4" stroke="#1a1a2e" stroke-width="1.2" stroke-linecap="round"/><line x1="189.4" y1="169.2" x2="189.4" y2="289.4" stroke="#1a1a2e" stroke-width="1.2" stroke-linecap="round"/><line x1="189.4" y1="289.4" x2="189.4" y2="364.5" stroke="#1a1a2e" stroke-width="1.2" stroke-linecap="round"/><line x1="48.0" y1="135.5" x2="48.0" y2="148.0" stroke="#1a1a2e" stroke-width="1.2" stroke-linecap="round"/><line x1="48.0" y1="148.0" x2="48.0" y2="169.2" stroke="#1a1a2e" stroke-width="1.2" stroke-linecap="round"/><line x1="97.2" y1="135.5" x2="96.6" y2="135.5" stroke="#1a1a2e" stroke-width="1.2" stroke-linecap="round"/><line x1="97.8" y1="135.5" x2="97.2" y2="135.5" stroke="#1a1a2e" stroke-width="1.2" stroke-linecap="round"/><line x1="96.6" y1="135.5" x2="96.1" y2="135.5" stroke="#1a1a2e" stroke-width="1.2" stroke-linecap="round"/><line x1="98.4" y1="135.5" x2="97.8" y2="135.5" stroke="#1a1a2e" stroke-width="1.2" stroke-linecap="round"/><line x1="96.1" y1="135.5" x2="95.5" y2="135.5" stroke="#1a1a2e" stroke-width="1.2" stroke-linecap="round"/><line x1="99.0" y1="135.5" x2="98.4" y2="135.5" stroke="#1a1a2e" stroke-width="1.2" stroke-linecap="round"/><line x1="95.5" y1="135.5" x2="95.0" y2="135.5" stroke="#1a1a2e" stroke-width="1.2" stroke-linecap="round"/><line x1="99.6" y1="135.5" x2="99.0" y2="135.5" stroke="#1a1a2e" stroke-width="1.2" stroke-linecap="round"/><line x1="95.0" y1="135.5" x2="94.6" y2="135.5" stroke="#1a1a2e" stroke-width="1.2" stroke-linecap="round"/><line x1="100.3" y1="135.5" x2="99.6" y2="135.5" stroke="#1a1a2e" stroke-width="1.2" stroke-linecap="round"/><line x1="94.6" y1="135.5" x2="94.1" y2="135.5" stroke="#1a1a2e" stroke-width="1.2" stroke-linecap="round"/><line x1="100.9" y1="135.5" x2="100.3" y2="135.5" stroke="#1a1a2e" stroke-width="1.2" stroke-linecap="round"/><line x1="94.1" y1="135.5" x2="93.7" y2="135.5" stroke="#1a1a2e" stroke-width="1.2" stroke-linecap="round"/><line x1="101.6" y1="135.5" x2="100.9" y2="135.5" stroke="#1a1a2e" stroke-width="1.2" stroke-linecap="round"/><line x1="93.7" y1="135.5" x2="93.3" y2="135.5" stroke="#1a1a2e" stroke-width="1.2" stroke-linecap="round"/><line x1="102.3" y1="135.5" x2="101.6" y2="135.5" stroke="#1a1a2e" stroke-width="1.2" stroke-linecap="round"/><line x1="93.3" y1="135.5" x2="93.0" y2="135.5" stroke="#1a1a2e" stroke-width="1.2" stroke-linecap="round"/><line x1="102.9" y1="135.5" x2="102.3" y2="135.5" stroke="#1a1a2e" stroke-width="1.2" stroke-linecap="round"/><line x1="103.6" y1="135.5" x2="102.9" y2="135.5" stroke="#1a1a2e" stroke-width="1.2" stroke-linecap="round"/><line x1="104.3" y1="135.5" x2="103.6" y2="135.5" stroke="#1a1a2e" stroke-width="1.2" stroke-linecap="round"/><line x1="105.0" y1="135.5" x2="104.3" y2="135.5" stroke="#1a1a2e" stroke-width="1.2" stroke-linecap="round"/><line x1="105.7" y1="135.5" x2="105.0" y2="135.5" stroke="#1a1a2e" stroke-width="1.2" stroke-linecap="round"/><line x1="106.4" y1="135.5" x2="105.7" y2="135.5" stroke="#1a1a2e" stroke-width="1.2" stroke-linecap="round"/><line x1="107.0" y1="135.5" x2="106.4" y2="135.5" stroke="#1a1a2e" stroke-width="1.2" stroke-linecap="round"/><line x1="107.7" y1="135.5" x2="107.0" y2="135.5" stroke="#1a1a2e" stroke-width="1.2" stroke-linecap="round"/><line x1="108.4" y1="135.5" x2="107.7" y2="135.5" stroke="#1a1a2e" stroke-width="1.2" stroke-linecap="round"/><line x1="109.0" y1="135.5" x2="108.4" y2="135.5" stroke="#1a1a2e" stroke-width="1.2" stroke-linecap="round"/><line x1="109.6" y1="135.5" x2="109.0" y2="135.5" stroke="#1a1a2e" stroke-width="1.2" stroke-linecap="round"/><line x1="110.3" y1="135.5" x2="109.6" y2="135.5" stroke="#1a1a2e" stroke-width="1.2" stroke-linecap="round"/><line x1="110.8" y1="135.5" x2="110.3" y2="135.5" stroke="#1a1a2e" stroke-width="1.2" stroke-linecap="round"/><line x1="111.4" y1="135.5" x2="110.8" y2="135.5" stroke="#1a1a2e" stroke-width="1.2" stroke-linecap="round"/><line x1="112.0" y1="135.5" x2="111.4" y2="135.5" stroke="#1a1a2e" stroke-width="1.2" stroke-linecap="round"/><line x1="112.5" y1="135.5" x2="112.0" y2="135.5" stroke="#1a1a2e" stroke-width="1.2" stroke-linecap="round"/><line x1="113.0" y1="135.5" x2="112.5" y2="135.5" stroke="#1a1a2e" stroke-width="1.2" stroke-linecap="round"/><line x1="113.5" y1="135.5" x2="113.0" y2="135.5" stroke="#1a1a2e" stroke-width="1.2" stroke-linecap="round"/><line x1="114.0" y1="135.5" x2="113.5" y2="135.5" stroke="#1a1a2e" stroke-width="1.2" stroke-linecap="round"/><line x1="114.4" y1="135.5" x2="114.0" y2="135.5" stroke="#1a1a2e" stroke-width="1.2" stroke-linecap="round"/><line x1="93.0" y1="135.5" x2="48.0" y2="135.5" stroke="#1a1a2e" stroke-width="1.2" stroke-linecap="round"/><line x1="114.4" y1="135.5" x2="166.3" y2="135.5" stroke="#1a1a2e" stroke-width="1.2" stroke-linecap="round"/><line x1="385.6" y1="135.5" x2="166.3" y2="135.5" stroke="#1a1a2e" stroke-width="1.2" stroke-linecap="round"/><line x1="386.0" y1="135.5" x2="385.6" y2="135.5" stroke="#1a1a2e" stroke-width="1.2" stroke-linecap="round"/><line x1="386.5" y1="135.5" x2="386.0" y2="135.5" stroke="#1a1a2e" stroke-width="1.2" stroke-linecap="round"/><line x1="387.0" y1="135.5" x2="386.5" y2="135.5" stroke="#1a1a2e" stroke-width="1.2" stroke-linecap="round"/><line x1="387.5" y1="135.5" x2="387.0" y2="135.5" stroke="#1a1a2e" stroke-width="1.2" stroke-linecap="round"/><line x1="388.0" y1="135.5" x2="387.5" y2="135.5" stroke="#1a1a2e" stroke-width="1.2" stroke-linecap="round"/><line x1="388.6" y1="135.5" x2="388.0" y2="135.5" stroke="#1a1a2e" stroke-width="1.2" stroke-linecap="round"/><line x1="389.2" y1="135.5" x2="388.6" y2="135.5" stroke="#1a1a2e" stroke-width="1.2" stroke-linecap="round"/><line x1="389.7" y1="135.5" x2="389.2" y2="135.5" stroke="#1a1a2e" stroke-width="1.2" stroke-linecap="round"/><line x1="390.4" y1="135.5" x2="389.7" y2="135.5" stroke="#1a1a2e" stroke-width="1.2" stroke-linecap="round"/><line x1="391.0" y1="135.5" x2="390.4" y2="135.5" stroke="#1a1a2e" stroke-width="1.2" stroke-linecap="round"/><line x1="391.6" y1="135.5" x2="391.0" y2="135.5" stroke="#1a1a2e" stroke-width="1.2" stroke-linecap="round"/><line x1="392.3" y1="135.5" x2="391.6" y2="135.5" stroke="#1a1a2e" stroke-width="1.2" stroke-linecap="round"/><line x1="393.0" y1="135.5" x2="392.3" y2="135.5" stroke="#1a1a2e" stroke-width="1.2" stroke-linecap="round"/><line x1="393.6" y1="135.5" x2="393.0" y2="135.5" stroke="#1a1a2e" stroke-width="1.2" stroke-linecap="round"/><line x1="394.3" y1="135.5" x2="393.6" y2="135.5" stroke="#1a1a2e" stroke-width="1.2" stroke-linecap="round"/><line x1="395.0" y1="135.5" x2="394.3" y2="135.5" stroke="#1a1a2e" stroke-width="1.2" stroke-linecap="round"/><line x1="395.7" y1="135.5" x2="395.0" y2="135.5" stroke="#1a1a2e" stroke-width="1.2" stroke-linecap="round"/><line x1="396.4" y1="135.5" x2="395.7" y2="135.5" stroke="#1a1a2e" stroke-width="1.2" stroke-linecap="round"/><line x1="397.1" y1="135.5" x2="396.4" y2="135.5" stroke="#1a1a2e" stroke-width="1.2" stroke-linecap="round"/><line x1="397.7" y1="135.5" x2="397.1" y2="135.5" stroke="#1a1a2e" stroke-width="1.2" stroke-linecap="round"/><line x1="398.4" y1="135.5" x2="397.7" y2="135.5" stroke="#1a1a2e" stroke-width="1.2" stroke-linecap="round"/><line x1="399.1" y1="135.5" x2="398.4" y2="135.5" stroke="#1a1a2e" stroke-width="1.2" stroke-linecap="round"/><line x1="399.7" y1="135.5" x2="399.1" y2="135.5" stroke="#1a1a2e" stroke-width="1.2" stroke-linecap="round"/><line x1="400.4" y1="135.5" x2="399.7" y2="135.5" stroke="#1a1a2e" stroke-width="1.2" stroke-linecap="round"/><line x1="401.0" y1="135.5" x2="400.4" y2="135.5" stroke="#1a1a2e" stroke-width="1.2" stroke-linecap="round"/><line x1="401.6" y1="135.5" x2="401.0" y2="135.5" stroke="#1a1a2e" stroke-width="1.2" stroke-linecap="round"/><line x1="402.2" y1="135.5" x2="401.6" y2="135.5" stroke="#1a1a2e" stroke-width="1.2" stroke-linecap="round"/><line x1="402.8" y1="135.5" x2="402.2" y2="135.5" stroke="#1a1a2e" stroke-width="1.2" stroke-linecap="round"/><line x1="403.4" y1="135.5" x2="402.8" y2="135.5" stroke="#1a1a2e" stroke-width="1.2" stroke-linecap="round"/><line x1="403.9" y1="135.5" x2="403.4" y2="135.5" stroke="#1a1a2e" stroke-width="1.2" stroke-linecap="round"/><line x1="404.5" y1="135.5" x2="403.9" y2="135.5" stroke="#1a1a2e" stroke-width="1.2" stroke-linecap="round"/><line x1="405.0" y1="135.5" x2="404.5" y2="135.5" stroke="#1a1a2e" stroke-width="1.2" stroke-linecap="round"/><line x1="405.4" y1="135.5" x2="405.0" y2="135.5" stroke="#1a1a2e" stroke-width="1.2" stroke-linecap="round"/><line x1="405.9" y1="135.5" x2="405.4" y2="135.5" stroke="#1a1a2e" stroke-width="1.2" stroke-linecap="round"/><line x1="406.3" y1="135.5" x2="405.9" y2="135.5" stroke="#1a1a2e" stroke-width="1.2" stroke-linecap="round"/><line x1="406.7" y1="135.5" x2="406.3" y2="135.5" stroke="#1a1a2e" stroke-width="1.2" stroke-linecap="round"/><line x1="407.0" y1="135.5" x2="406.7" y2="135.5" stroke="#1a1a2e" stroke-width="1.2" stroke-linecap="round"/><line x1="452.0" y1="135.5" x2="407.0" y2="135.5" stroke="#1a1a2e" stroke-width="1.2" stroke-linecap="round"/><line x1="199.7" y1="364.5" x2="216.3" y2="364.5" stroke="#1a1a2e" stroke-width="1.2" stroke-linecap="round"/><line x1="189.4" y1="364.5" x2="199.7" y2="364.5" stroke="#1a1a2e" stroke-width="1.2" stroke-linecap="round"/></g><text x="48.0" y="378.5" text-anchor="start" font-size="9" fill="#777" font-family="monospace">-30.0</text><text x="452.0" y="378.5" text-anchor="end" font-size="9" fill="#777" font-family="monospace">30.0</text><text x="44.0" y="364.5" text-anchor="end" font-size="9" fill="#777" font-family="monospace">-29.0</text><text x="44.0" y="135.5" text-anchor="end" font-size="9" fill="#777" font-family="monospace">5.0</text><text x="250.0" y="494.0" text-anchor="middle" font-size="9" fill="#777" font-family="monospace">X (mm)</text><text x="12" y="250.0" text-anchor="middle" font-size="9" fill="#777" font-family="sans-serif" transform="rotate(-90 12 250.0)">Y (mm)</text><line x1="384.7" y1="390.4666666666667" x2="452.0" y2="390.4666666666667" stroke="#999" stroke-width="1.5"/><text x="418.3" y="401.4666666666667" text-anchor="middle" font-size="9" fill="#999" font-family="sans-serif">10 mm</text></svg>