<svg xmlns="http://www.w3.org/2000/svg" width="500" height="500"><rect width="500" height="500" fill="white" rx="3"/><rect x="48.0" y="135.5" width="404.0" height="228.9" fill="#f5f5f7" stroke="#e0e0e0" stroke-width="0.5"/><text x="250" y="18" text-anchor="middle" font-size="11" font-weight="600" fill="#333" font-family="sans-serif">Z = 36.89 mm  ·  XY plane</text><g><line x1="283.7" y1="339.9" x2="283.7" y2="169.2" stroke="#1a1a2e" stroke-width="1.2" stroke-linecap="round"/><line x1="283.7" y1="339.9" x2="283.7" y2="364.5" stroke="#1a1a2e" stroke-width="1.2" stroke-linecap="round"/><line x1="86.0" y1="169.2" x2="86.0" y2="169.2" stroke="#1a1a2e" stroke-width="1.2" stroke-linecap="round"/><line x1="48.0" y1="169.2" x2="86.0" y2="169.2" stroke="#1a1a2e" stroke-width="1.2" stroke-linecap="round"/><line x1="163.8" y1="169.2" x2="161.9" y2="169.2" stroke="#1a1a2e" stroke-width="1.2" stroke-linecap="round"/><line x1="165.4" y1="169.2" x2="163.8" y2="169.2" stroke="#1a1a2e" stroke-width="1.2" stroke-linecap="round"/><line x1="166.7" y1="169.2" x2="165.4" y2="169.2" stroke="#1a1a2e" stroke-width="1.2" stroke-linecap="round"/><line x1="167.9" y1="169.2" x2="166.7" y2="169.2" stroke="#1a1a2e" stroke-width="1.2" stroke-linecap="round"/><line x1="168.9" y1="169.2" x2="167.9" y2="169.2" stroke="#1a1a2e" stroke-width="1.2" stroke-linecap="round"/><line x1="169.7" y1="169.2" x2="168.9" y2="169.2" stroke="#1a1a2e" stroke-width="1.2" stroke-linecap="round"/><line x1="170.5" y1="169.2" x2="169.7" y2="169.2" stroke="#1a1a2e" stroke-width="1.2" stroke-linecap="round"/><line x1="171.1" y1="169.2" x2="170.5" y2="169.2" stroke="#1a1a2e" stroke-width="1.2" stroke-linecap="round"/><line x1="144.8" y1="169.2" x2="144.7" y2="169.2" stroke="#1a1a2e" stroke-width="1.2" stroke-linecap="round"/><line x1="149.7" y1="169.2" x2="144.8" y2="169.2" stroke="#1a1a2e" stroke-width="1.2" stroke-linecap="round"/><line x1="153.7" y1="169.2" x2="149.7" y2="169.2" stroke="#1a1a2e" stroke-width="1.2" stroke-linecap="round"/><line x1="156.9" y1="169.2" x2="153.7" y2="169.2" stroke="#1a1a2e" stroke-width="1.2" stroke-linecap="round"/><line x1="159.6" y1="169.2" x2="156.9" y2="169.2" stroke="#1a1a2e" stroke-width="1.2" stroke-linecap="round"/><line x1="161.9" y1="169.2" x2="159.6" y2="169.2" stroke="#1a1a2e" stroke-width="1.2" stroke-linecap="round"/><line x1="171.1" y1="169.2" x2="189.4" y2="169.2" stroke="#1a1a2e" stroke-width="1.2" stroke-linecap="round"/><line x1="355.2" y1="169.2" x2="355.3" y2="169.2" stroke="#1a1a2e" stroke-width="1.2" stroke-linecap="round"/><line x1="350.3" y1="169.2" x2="355.2" y2="169.2" stroke="#1a1a2e" stroke-width="1.2" stroke-linecap="round"/><line x1="346.3" y1="169.2" x2="350.3" y2="169.2" stroke="#1a1a2e" stroke-width="1.2" stroke-linecap="round"/><line x1="343.1" y1="169.2" x2="346.3" y2="169.2" stroke="#1a1a2e" stroke-width="1.2" stroke-linecap="round"/><line x1="340.4" y1="169.2" x2="343.1" y2="169.2" stroke="#1a1a2e" stroke-width="1.2" stroke-linecap="round"/><line x1="338.1" y1="169.2" x2="340.4" y2="169.2" stroke="#1a1a2e" stroke-width="1.2" stroke-linecap="round"/><line x1="336.2" y1="169.2" x2="338.1" y2="169.2" stroke="#1a1a2e" stroke-width="1.2" stroke-linecap="round"/><line x1="334.6" y1="169.2" x2="336.2" y2="169.2" stroke="#1a1a2e" stroke-width="1.2" stroke-linecap="round"/><line x1="333.3" y1="169.2" x2="334.6" y2="169.2" stroke="#1a1a2e" stroke-width="1.2" stroke-linecap="round"/><line x1="332.1" y1="169.2" x2="333.3" y2="169.2" stroke="#1a1a2e" stroke-width="1.2" stroke-linecap="round"/><line x1="331.1" y1="169.2" x2="332.1" y2="169.2" stroke="#1a1a2e" stroke-width="1.2" stroke-linecap="round"/><line x1="216.3" y1="169.2" x2="224.8" y2="169.2" stroke="#1a1a2e" stroke-width="1.2" stroke-linecap="round"/><line x1="224.8" y1="169.2" x2="283.7" y2="169.2" stroke="#1a1a2e" stroke-width="1.2" stroke-linecap="round"/><line x1="330.3" y1="169.2" x2="331.1" y2="169.2" stroke="#1a1a2e" stroke-width="1.2" stroke-linecap="round"/><line x1="329.5" y1="169.2" x2="330.3" y2="169.2" stroke="#1a1a2e" stroke-width="1.2" stroke-linecap="round"/><line x1="328.9" y1="169.2" x2="329.5" y2="169.2" stroke="#1a1a2e" stroke-width="1.2" stroke-linecap="round"/><line x1="310.6" y1="169.2" x2="328.9" y2="169.2" stroke="#1a1a2e" stroke-width="1.2" stroke-linecap="round"/><line x1="414.6" y1="169.2" x2="452.0" y2="169.2" stroke="#1a1a2e" stroke-width="1.2" stroke-linecap="round"/><line x1="414.0" y1="169.2" x2="414.6" y2="169.2" stroke="#1a1a2e" stroke-width="1.2" stroke-linecap="round"/><line x1="414.0" y1="169.2" x2="414.0" y2="169.2" stroke="#1a1a2e" stroke-width="1.2" stroke-linecap="round"/><line x1="283.7" y1="364.5" x2="308.9" y2="364.5" stroke="#1a1a2e" stroke-width="1.2" stroke-linecap="round"/><line x1="308.9" y1="364.5" x2="310.6" y2="364.5" stroke="#1a1a2e" stroke-width="1.2" stroke-linecap="round"/><line x1="310.6" y1="169.2" x2="310.6" y2="339.9" stroke="#1a1a2e" stroke-width="1.2" stroke-linecap="round"/><line x1="310.6" y1="364.5" x2="310.6" y2="339.9" stroke="#1a1a2e" stroke-width="1.2" stroke-linecap="round"/><line x1="452.0" y1="144.4" x2="452.0" y2="135.5" stroke="#1a1a2e" stroke-width="1.2" stroke-linecap="round"/><line x1="452.0" y1="169.2" x2="452.0" y2="144.4" stroke="#1a1a2e" stroke-width="1.2" stroke-linecap="round"/><line x1="216.3" y1="169.2" x2="216.3" y2="339.9" stroke="#1a1a2e" stroke-width="1.2" stroke-linecap="round"/><line x1="216.3" y1="364.5" x2="216.3" y2="339.9" stroke="#1a1a2e" stroke-width="1.2" stroke-linecap="round"/><line x1="189.4" y1="339.9" x2="189.4" y2="169.2" stroke="#1a1a2e" stroke-width="1.2" stroke-linecap="round"/><line x1="189.4" y1="339.9" x2="189.4" y2="364.5" stroke="#1a1a2e" stroke-width="1.2" stroke-linecap="round"/><line x1="48.0" y1="135.5" x2="48.0" y2="144.4" stroke="#1a1a2e" stroke-width="1.2" stroke-linecap="round"/><line x1="48.0" y1="144.4" x2="48.0" y2="169.2" stroke="#1a1a2e" stroke-width="1.2" stroke-linecap="round"/><line x1="102.2" y1="135.5" x2="102.0" y2="135.5" stroke="#1a1a2e" stroke-width="1.2" stroke-linecap="round"/><line x1="102.0" y1="135.5" x2="101.5" y2="135.5" stroke="#1a1a2e" stroke-width="1.2" stroke-linecap="round"/><line x1="101.5" y1="135.5" x2="101.0" y2="135.5" stroke="#1a1a2e" stroke-width="1.2" stroke-linecap="round"/><line x1="101.0" y1="135.5" x2="100.6" y2="135.5" stroke="#1a1a2e" stroke-width="1.2" stroke-linecap="round"/><line x1="100.6" y1="135.5" x2="48.0" y2="135.5" stroke="#1a1a2e" stroke-width="1.2" stroke-linecap="round"/><line x1="276.5" y1="135.5" x2="128.5" y2="135.5" stroke="#1a1a2e" stroke-width="1.2" stroke-linecap="round"/><line x1="371.5" y1="135.5" x2="276.5" y2="135.5" stroke="#1a1a2e" stroke-width="1.2" stroke-linecap="round"/><line x1="398.0" y1="135.5" x2="397.8" y2="135.5" stroke="#1a1a2e" stroke-width="1.2" stroke-linecap="round"/><line x1="398.5" y1="135.5" x2="398.0" y2="135.5" stroke="#1a1a2e" stroke-width="1.2" stroke-linecap="round"/><line x1="399.0" y1="135.5" x2="398.5" y2="135.5" stroke="#1a1a2e" stroke-width="1.2" stroke-linecap="round"/><line x1="399.4" y1="135.5" x2="399.0" y2="135.5" stroke="#1a1a2e" stroke-width="1.2" stroke-linecap="round"/><line x1="452.0" y1="135.5" x2="399.4" y2="135.5" stroke="#1a1a2e" stroke-width="1.2" stroke-linecap="round"/><line x1="86.0" y1="156.0" x2="86.0" y2="169.2" stroke="#1a1a2e" stroke-width="1.2" stroke-linecap="round"/><line x1="86.0" y1="155.7" x2="86.0" y2="156.0" stroke="#1a1a2e" stroke-width="1.2" stroke-linecap="round"/><line x1="144.7" y1="169.0" x2="144.7" y2="169.2" stroke="#1a1a2e" stroke-width="1.2" stroke-linecap="round"/><line x1="144.7" y1="155.7" x2="144.7" y2="169.0" stroke="#1a1a2e" stroke-width="1.2" stroke-linecap="round"/><line x1="355.3" y1="156.0" x2="355.3" y2="169.2" stroke="#1a1a2e" stroke-width="1.2" stroke-linecap="round"/><line x1="355.3" y1="155.7" x2="355.3" y2="156.0" stroke="#1a1a2e" stroke-width="1.2" stroke-linecap="round"/><line x1="414.0" y1="169.0" x2="414.0" y2="169.2" stroke="#1a1a2e" stroke-width="1.2" stroke-linecap="round"/><line x1="414.0" y1="155.7" x2="414.0" y2="169.0" stroke="#1a1a2e" stroke-width="1.2" stroke-linecap="round"/><line x1="189.4" y1="364.5" x2="214.7" y2="364.5" stroke="#1a1a2e" stroke-width="1.2" stroke-linecap="round"/><line x1="214.7" y1="364.5" x2="216.3" y2="364.5" stroke="#1a1a2e" stroke-width="1.2" stroke-linecap="round"/><line x1="102.2" y1="143.4" x2="102.2" y2="155.7" stroke="#1a1a2e" stroke-width="1.2" stroke-linecap="round"/><line x1="102.2" y1="135.5" x2="102.2" y2="143.4" stroke="#1a1a2e" stroke-width="1.2" stroke-linecap="round"/><line x1="128.5" y1="147.8" x2="128.5" y2="155.7" stroke="#1a1a2e" stroke-width="1.2" stroke-linecap="round"/><line x1="128.5" y1="135.5" x2="128.5" y2="147.8" stroke="#1a1a2e" stroke-width="1.2" stroke-linecap="round"/><line x1="371.5" y1="143.4" x2="371.5" y2="155.7" stroke="#1a1a2e" stroke-width="1.2" stroke-linecap="round"/><line x1="371.5" y1="135.5" x2="371.5" y2="143.4" stroke="#1a1a2e" stroke-width="1.2" stroke-linecap="round"/><line x1="397.8" y1="147.8" x2="397.8" y2="155.7" stroke="#1a1a2e" stroke-width="1.2" stroke-linecap="round"/><line x1="397.8" y1="135.5" x2="397.8" y2="147.8" stroke="#1a1a2e" stroke-width="1.2" stroke-linecap="round"/><line x1="101.7" y1="155.7" x2="102.2" y2="155.7" stroke="#1a1a2e" stroke-width="1.2" stroke-linecap="round"/><line x1="101.6" y1="155.7" x2="101.7" y2="155.7" stroke="#1a1a2e" stroke-width="1.2" stroke-linecap="round"/><line x1="100.2" y1="155.7" x2="101.6" y2="155.7" stroke="#1a1a2e" stroke-width="1.2" stroke-linecap="round"/><line x1="99.1" y1="155.7" x2="99.8" y2="155.7" stroke="#1a1a2e" stroke-width="1.2" stroke-linecap="round"/><line x1="99.8" y1="155.7" x2="100.2" y2="155.7" stroke="#1a1a2e" stroke-width="1.2" stroke-linecap="round"/><line x1="97.5" y1="155.7" x2="99.1" y2="155.7" stroke="#1a1a2e" stroke-width="1.2" stroke-linecap="round"/><line x1="96.3" y1="155.7" x2="97.5" y2="155.7" stroke="#1a1a2e" stroke-width="1.2" stroke-linecap="round"/><line x1="94.7" y1="155.7" x2="96.3" y2="155.7" stroke="#1a1a2e" stroke-width="1.2" stroke-linecap="round"/><line x1="91.0" y1="155.7" x2="93.7" y2="155.7" stroke="#1a1a2e" stroke-width="1.2" stroke-linecap="round"/><line x1="93.7" y1="155.7" x2="94.7" y2="155.7" stroke="#1a1a2e" stroke-width="1.2" stroke-linecap="round"/><line x1="86.0" y1="155.7" x2="90.3" y2="155.7" stroke="#1a1a2e" stroke-width="1.2" stroke-linecap="round"/><line x1="90.3" y1="155.7" x2="91.0" y2="155.7" stroke="#1a1a2e" stroke-width="1.2" stroke-linecap="round"/><line x1="129.1" y1="155.7" x2="128.5" y2="155.7" stroke="#1a1a2e" stroke-width="1.2" stroke-linecap="round"/><line x1="130.5" y1="155.7" x2="129.1" y2="155.7" stroke="#1a1a2e" stroke-width="1.2" stroke-linecap="round"/><line x1="130.9" y1="155.7" x2="130.5" y2="155.7" stroke="#1a1a2e" stroke-width="1.2" stroke-linecap="round"/><line x1="133.1" y1="155.7" x2="131.5" y2="155.7" stroke="#1a1a2e" stroke-width="1.2" stroke-linecap="round"/><line x1="131.5" y1="155.7" x2="130.9" y2="155.7" stroke="#1a1a2e" stroke-width="1.2" stroke-linecap="round"/><line x1="134.5" y1="155.7" x2="133.1" y2="155.7" stroke="#1a1a2e" stroke-width="1.2" stroke-linecap="round"/><line x1="135.9" y1="155.7" x2="134.5" y2="155.7" stroke="#1a1a2e" stroke-width="1.2" stroke-linecap="round"/><line x1="139.7" y1="155.7" x2="138.7" y2="155.7" stroke="#1a1a2e" stroke-width="1.2" stroke-linecap="round"/><line x1="140.4" y1="155.7" x2="139.7" y2="155.7" stroke="#1a1a2e" stroke-width="1.2" stroke-linecap="round"/><line x1="138.7" y1="155.7" x2="135.9" y2="155.7" stroke="#1a1a2e" stroke-width="1.2" stroke-linecap="round"/><line x1="140.4" y1="155.7" x2="144.7" y2="155.7" stroke="#1a1a2e" stroke-width="1.2" stroke-linecap="round"/><line x1="370.9" y1="155.7" x2="371.5" y2="155.7" stroke="#1a1a2e" stroke-width="1.2" stroke-linecap="round"/><line x1="369.5" y1="155.7" x2="370.9" y2="155.7" stroke="#1a1a2e" stroke-width="1.2" stroke-linecap="round"/><line x1="369.1" y1="155.7" x2="369.5" y2="155.7" stroke="#1a1a2e" stroke-width="1.2" stroke-linecap="round"/><line x1="367.7" y1="155.7" x2="369.1" y2="155.7" stroke="#1a1a2e" stroke-width="1.2" stroke-linecap="round"/><line x1="366.9" y1="155.7" x2="367.7" y2="155.7" stroke="#1a1a2e" stroke-width="1.2" stroke-linecap="round"/><line x1="364.1" y1="155.7" x2="365.6" y2="155.7" stroke="#1a1a2e" stroke-width="1.2" stroke-linecap="round"/><line x1="365.6" y1="155.7" x2="366.9" y2="155.7" stroke="#1a1a2e" stroke-width="1.2" stroke-linecap="round"/><line x1="355.3" y1="155.7" x2="360.3" y2="155.7" stroke="#1a1a2e" stroke-width="1.2" stroke-linecap="round"/><line x1="360.3" y1="155.7" x2="363.0" y2="155.7" stroke="#1a1a2e" stroke-width="1.2" stroke-linecap="round"/><line x1="363.0" y1="155.7" x2="364.1" y2="155.7" stroke="#1a1a2e" stroke-width="1.2" stroke-linecap="round"/><line x1="398.4" y1="155.7" x2="397.8" y2="155.7" stroke="#1a1a2e" stroke-width="1.2" stroke-linecap="round"/><line x1="399.8" y1="155.7" x2="398.4" y2="155.7" stroke="#1a1a2e" stroke-width="1.2" stroke-linecap="round"/><line x1="400.2" y1="155.7" x2="399.8" y2="155.7" stroke="#1a1a2e" stroke-width="1.2" stroke-linecap="round"/><line x1="402.5" y1="155.7" x2="400.9" y2="155.7" stroke="#1a1a2e" stroke-width="1.2" stroke-linecap="round"/><line x1="400.9" y1="155.7" x2="400.2" y2="155.7" stroke="#1a1a2e" stroke-width="1.2" stroke-linecap="round"/><line x1="405.3" y1="155.7" x2="403.9" y2="155.7" stroke="#1a1a2e" stroke-width="1.2" stroke-linecap="round"/><line x1="406.3" y1="155.7" x2="405.3" y2="155.7" stroke="#1a1a2e" stroke-width="1.2" stroke-linecap="round"/><line x1="403.9" y1="155.7" x2="402.5" y2="155.7" stroke="#1a1a2e" stroke-width="1.2" stroke-linecap="round"/><line x1="409.0" y1="155.7" x2="406.3" y2="155.7" stroke="#1a1a2e" stroke-width="1.2" stroke-linecap="round"/><line x1="409.0" y1="155.7" x2="414.0" y2="155.7" stroke="#1a1a2e" stroke-width="1.2" stroke-linecap="round"/></g><text x="48.0" y="378.5" text-anchor="start" font-size="9" fill="#777" font-family="monospace">-30.0</text><text x="452.0" y="378.5" text-anchor="end" font-size="9" fill="#777" font-family="monospace">30.0</text><text x="44.0" y="364.5" text-anchor="end" font-size="9" fill="#777" font-family="monospace">-29.0</text><text x="44.0" y="135.5" text-anchor="end" font-size="9" fill="#777" font-family="monospace">5.0</text><text x="250.0" y="494.0" text-anchor="middle" font-size="9" fill="#777" font-family="monospace">X (mm)</text><text x="12" y="250.0" text-anchor="middle" font-size="9" fill="#777" font-family="sans-serif" transform="rotate(-90 12 250.0)">Y (mm)</text><line x1="384.7" y1="390.4666666666667" x2="452.0" y2="390.4666666666667" stroke="#999" stroke-width="1.5"/><text x="418.3" y="401.4666666666667" text-anchor="middle" font-size="9" fill="#999" font-family="sans-serif">10 mm</text></svg>