<svg xmlns="http://www.w3.org/2000/svg" width="500" height="500"><rect width="500" height="500" fill="white" rx="3"/><rect x="48.0" y="95.1" width="404.0" height="309.7" fill="#f5f5f7" stroke="#e0e0e0" stroke-width="0.5"/><text x="250" y="18" text-anchor="middle" font-size="11" font-weight="600" fill="#333" font-family="sans-serif">Z = 12.25 mm  ·  XY plane</text><g><line x1="452.0" y1="120.6" x2="452.0" y2="95.1" stroke="#1a1a2e" stroke-width="1.2" stroke-linecap="round"/><line x1="452.0" y1="128.8" x2="452.0" y2="120.6" stroke="#1a1a2e" stroke-width="1.2" stroke-linecap="round"/><line x1="126.3" y1="128.8" x2="175.9" y2="128.8" stroke="#1a1a2e" stroke-width="1.2" stroke-linecap="round"/><line x1="63.8" y1="128.8" x2="64.3" y2="128.8" stroke="#1a1a2e" stroke-width="1.2" stroke-linecap="round"/><line x1="64.3" y1="128.8" x2="64.7" y2="128.8" stroke="#1a1a2e" stroke-width="1.2" stroke-linecap="round"/><line x1="63.4" y1="128.8" x2="63.8" y2="128.8" stroke="#1a1a2e" stroke-width="1.2" stroke-linecap="round"/><line x1="64.7" y1="128.8" x2="65.2" y2="128.8" stroke="#1a1a2e" stroke-width="1.2" stroke-linecap="round"/><line x1="63.0" y1="128.8" x2="63.4" y2="128.8" stroke="#1a1a2e" stroke-width="1.2" stroke-linecap="round"/><line x1="65.2" y1="128.8" x2="65.7" y2="128.8" stroke="#1a1a2e" stroke-width="1.2" stroke-linecap="round"/><line x1="62.6" y1="128.8" x2="63.0" y2="128.8" stroke="#1a1a2e" stroke-width="1.2" stroke-linecap="round"/><line x1="65.7" y1="128.8" x2="66.2" y2="128.8" stroke="#1a1a2e" stroke-width="1.2" stroke-linecap="round"/><line x1="62.2" y1="128.8" x2="62.6" y2="128.8" stroke="#1a1a2e" stroke-width="1.2" stroke-linecap="round"/><line x1="66.2" y1="128.8" x2="66.7" y2="128.8" stroke="#1a1a2e" stroke-width="1.2" stroke-linecap="round"/><line x1="61.9" y1="128.8" x2="62.2" y2="128.8" stroke="#1a1a2e" stroke-width="1.2" stroke-linecap="round"/><line x1="66.7" y1="128.8" x2="67.3" y2="128.8" stroke="#1a1a2e" stroke-width="1.2" stroke-linecap="round"/><line x1="61.6" y1="128.8" x2="61.9" y2="128.8" stroke="#1a1a2e" stroke-width="1.2" stroke-linecap="round"/><line x1="67.3" y1="128.8" x2="67.8" y2="128.8" stroke="#1a1a2e" stroke-width="1.2" stroke-linecap="round"/><line x1="61.3" y1="128.8" x2="61.6" y2="128.8" stroke="#1a1a2e" stroke-width="1.2" stroke-linecap="round"/><line x1="67.8" y1="128.8" x2="68.4" y2="128.8" stroke="#1a1a2e" stroke-width="1.2" stroke-linecap="round"/><line x1="68.4" y1="128.8" x2="126.3" y2="128.8" stroke="#1a1a2e" stroke-width="1.2" stroke-linecap="round"/><line x1="61.1" y1="128.8" x2="61.3" y2="128.8" stroke="#1a1a2e" stroke-width="1.2" stroke-linecap="round"/><line x1="60.8" y1="128.8" x2="61.1" y2="128.8" stroke="#1a1a2e" stroke-width="1.2" stroke-linecap="round"/><line x1="60.6" y1="128.8" x2="60.8" y2="128.8" stroke="#1a1a2e" stroke-width="1.2" stroke-linecap="round"/><line x1="48.0" y1="128.8" x2="60.6" y2="128.8" stroke="#1a1a2e" stroke-width="1.2" stroke-linecap="round"/><line x1="324.1" y1="128.8" x2="373.7" y2="128.8" stroke="#1a1a2e" stroke-width="1.2" stroke-linecap="round"/><line x1="373.7" y1="128.8" x2="431.6" y2="128.8" stroke="#1a1a2e" stroke-width="1.2" stroke-linecap="round"/><line x1="431.6" y1="128.8" x2="432.2" y2="128.8" stroke="#1a1a2e" stroke-width="1.2" stroke-linecap="round"/><line x1="432.2" y1="128.8" x2="432.7" y2="128.8" stroke="#1a1a2e" stroke-width="1.2" stroke-linecap="round"/><line x1="432.7" y1="128.8" x2="433.3" y2="128.8" stroke="#1a1a2e" stroke-width="1.2" stroke-linecap="round"/><line x1="433.3" y1="128.8" x2="433.8" y2="128.8" stroke="#1a1a2e" stroke-width="1.2" stroke-linecap="round"/><line x1="433.8" y1="128.8" x2="434.3" y2="128.8" stroke="#1a1a2e" stroke-width="1.2" stroke-linecap="round"/><line x1="434.3" y1="128.8" x2="434.8" y2="128.8" stroke="#1a1a2e" stroke-width="1.2" stroke-linecap="round"/><line x1="434.8" y1="128.8" x2="435.3" y2="128.8" stroke="#1a1a2e" stroke-width="1.2" stroke-linecap="round"/><line x1="435.3" y1="128.8" x2="435.7" y2="128.8" stroke="#1a1a2e" stroke-width="1.2" stroke-linecap="round"/><line x1="435.7" y1="128.8" x2="436.2" y2="128.8" stroke="#1a1a2e" stroke-width="1.2" stroke-linecap="round"/><line x1="436.2" y1="128.8" x2="436.6" y2="128.8" stroke="#1a1a2e" stroke-width="1.2" stroke-linecap="round"/><line x1="436.6" y1="128.8" x2="437.0" y2="128.8" stroke="#1a1a2e" stroke-width="1.2" stroke-linecap="round"/><line x1="437.0" y1="128.8" x2="437.4" y2="128.8" stroke="#1a1a2e" stroke-width="1.2" stroke-linecap="round"/><line x1="437.4" y1="128.8" x2="437.8" y2="128.8" stroke="#1a1a2e" stroke-width="1.2" stroke-linecap="round"/><line x1="437.8" y1="128.8" x2="438.1" y2="128.8" stroke="#1a1a2e" stroke-width="1.2" stroke-linecap="round"/><line x1="438.1" y1="128.8" x2="438.4" y2="128.8" stroke="#1a1a2e" stroke-width="1.2" stroke-linecap="round"/><line x1="438.4" y1="128.8" x2="438.7" y2="128.8" stroke="#1a1a2e" stroke-width="1.2" stroke-linecap="round"/><line x1="439.6" y1="128.8" x2="452.0" y2="128.8" stroke="#1a1a2e" stroke-width="1.2" stroke-linecap="round"/><line x1="439.4" y1="128.8" x2="439.6" y2="128.8" stroke="#1a1a2e" stroke-width="1.2" stroke-linecap="round"/><line x1="439.2" y1="128.8" x2="439.4" y2="128.8" stroke="#1a1a2e" stroke-width="1.2" stroke-linecap="round"/><line x1="438.9" y1="128.8" x2="439.2" y2="128.8" stroke="#1a1a2e" stroke-width="1.2" stroke-linecap="round"/><line x1="438.7" y1="128.8" x2="438.9" y2="128.8" stroke="#1a1a2e" stroke-width="1.2" stroke-linecap="round"/><line x1="48.0" y1="95.1" x2="48.0" y2="120.6" stroke="#1a1a2e" stroke-width="1.2" stroke-linecap="round"/><line x1="48.0" y1="120.6" x2="48.0" y2="128.8" stroke="#1a1a2e" stroke-width="1.2" stroke-linecap="round"/><line x1="67.1" y1="95.1" x2="66.9" y2="95.1" stroke="#1a1a2e" stroke-width="1.2" stroke-linecap="round"/><line x1="67.3" y1="95.1" x2="67.1" y2="95.1" stroke="#1a1a2e" stroke-width="1.2" stroke-linecap="round"/><line x1="66.9" y1="95.1" x2="66.7" y2="95.1" stroke="#1a1a2e" stroke-width="1.2" stroke-linecap="round"/><line x1="67.6" y1="95.1" x2="67.3" y2="95.1" stroke="#1a1a2e" stroke-width="1.2" stroke-linecap="round"/><line x1="66.7" y1="95.1" x2="66.5" y2="95.1" stroke="#1a1a2e" stroke-width="1.2" stroke-linecap="round"/><line x1="67.8" y1="95.1" x2="67.6" y2="95.1" stroke="#1a1a2e" stroke-width="1.2" stroke-linecap="round"/><line x1="66.5" y1="95.1" x2="66.3" y2="95.1" stroke="#1a1a2e" stroke-width="1.2" stroke-linecap="round"/><line x1="68.1" y1="95.1" x2="67.8" y2="95.1" stroke="#1a1a2e" stroke-width="1.2" stroke-linecap="round"/><line x1="66.3" y1="95.1" x2="66.1" y2="95.1" stroke="#1a1a2e" stroke-width="1.2" stroke-linecap="round"/><line x1="68.3" y1="95.1" x2="68.1" y2="95.1" stroke="#1a1a2e" stroke-width="1.2" stroke-linecap="round"/><line x1="66.1" y1="95.1" x2="65.9" y2="95.1" stroke="#1a1a2e" stroke-width="1.2" stroke-linecap="round"/><line x1="68.6" y1="95.1" x2="68.3" y2="95.1" stroke="#1a1a2e" stroke-width="1.2" stroke-linecap="round"/><line x1="65.9" y1="95.1" x2="65.8" y2="95.1" stroke="#1a1a2e" stroke-width="1.2" stroke-linecap="round"/><line x1="68.8" y1="95.1" x2="68.6" y2="95.1" stroke="#1a1a2e" stroke-width="1.2" stroke-linecap="round"/><line x1="65.8" y1="95.1" x2="65.6" y2="95.1" stroke="#1a1a2e" stroke-width="1.2" stroke-linecap="round"/><line x1="69.1" y1="95.1" x2="68.8" y2="95.1" stroke="#1a1a2e" stroke-width="1.2" stroke-linecap="round"/><line x1="65.6" y1="95.1" x2="65.5" y2="95.1" stroke="#1a1a2e" stroke-width="1.2" stroke-linecap="round"/><line x1="69.3" y1="95.1" x2="69.1" y2="95.1" stroke="#1a1a2e" stroke-width="1.2" stroke-linecap="round"/><line x1="69.6" y1="95.1" x2="69.3" y2="95.1" stroke="#1a1a2e" stroke-width="1.2" stroke-linecap="round"/><line x1="69.9" y1="95.1" x2="69.6" y2="95.1" stroke="#1a1a2e" stroke-width="1.2" stroke-linecap="round"/><line x1="70.1" y1="95.1" x2="69.9" y2="95.1" stroke="#1a1a2e" stroke-width="1.2" stroke-linecap="round"/><line x1="70.4" y1="95.1" x2="70.1" y2="95.1" stroke="#1a1a2e" stroke-width="1.2" stroke-linecap="round"/><line x1="70.7" y1="95.1" x2="70.4" y2="95.1" stroke="#1a1a2e" stroke-width="1.2" stroke-linecap="round"/><line x1="70.9" y1="95.1" x2="70.7" y2="95.1" stroke="#1a1a2e" stroke-width="1.2" stroke-linecap="round"/><line x1="71.2" y1="95.1" x2="70.9" y2="95.1" stroke="#1a1a2e" stroke-width="1.2" stroke-linecap="round"/><line x1="71.5" y1="95.1" x2="71.2" y2="95.1" stroke="#1a1a2e" stroke-width="1.2" stroke-linecap="round"/><line x1="71.7" y1="95.1" x2="71.5" y2="95.1" stroke="#1a1a2e" stroke-width="1.2" stroke-linecap="round"/><line x1="71.9" y1="95.1" x2="71.7" y2="95.1" stroke="#1a1a2e" stroke-width="1.2" stroke-linecap="round"/><line x1="72.2" y1="95.1" x2="71.9" y2="95.1" stroke="#1a1a2e" stroke-width="1.2" stroke-linecap="round"/><line x1="72.4" y1="95.1" x2="72.2" y2="95.1" stroke="#1a1a2e" stroke-width="1.2" stroke-linecap="round"/><line x1="72.6" y1="95.1" x2="72.4" y2="95.1" stroke="#1a1a2e" stroke-width="1.2" stroke-linecap="round"/><line x1="72.9" y1="95.1" x2="72.6" y2="95.1" stroke="#1a1a2e" stroke-width="1.2" stroke-linecap="round"/><line x1="73.1" y1="95.1" x2="72.9" y2="95.1" stroke="#1a1a2e" stroke-width="1.2" stroke-linecap="round"/><line x1="73.3" y1="95.1" x2="73.1" y2="95.1" stroke="#1a1a2e" stroke-width="1.2" stroke-linecap="round"/><line x1="73.4" y1="95.1" x2="73.3" y2="95.1" stroke="#1a1a2e" stroke-width="1.2" stroke-linecap="round"/><line x1="73.6" y1="95.1" x2="73.4" y2="95.1" stroke="#1a1a2e" stroke-width="1.2" stroke-linecap="round"/><line x1="73.8" y1="95.1" x2="73.6" y2="95.1" stroke="#1a1a2e" stroke-width="1.2" stroke-linecap="round"/><line x1="65.5" y1="95.1" x2="48.0" y2="95.1" stroke="#1a1a2e" stroke-width="1.2" stroke-linecap="round"/><line x1="73.8" y1="95.1" x2="341.0" y2="95.1" stroke="#1a1a2e" stroke-width="1.2" stroke-linecap="round"/><line x1="426.2" y1="95.1" x2="341.0" y2="95.1" stroke="#1a1a2e" stroke-width="1.2" stroke-linecap="round"/><line x1="426.4" y1="95.1" x2="426.2" y2="95.1" stroke="#1a1a2e" stroke-width="1.2" stroke-linecap="round"/><line x1="426.6" y1="95.1" x2="426.4" y2="95.1" stroke="#1a1a2e" stroke-width="1.2" stroke-linecap="round"/><line x1="426.7" y1="95.1" x2="426.6" y2="95.1" stroke="#1a1a2e" stroke-width="1.2" stroke-linecap="round"/><line x1="426.9" y1="95.1" x2="426.7" y2="95.1" stroke="#1a1a2e" stroke-width="1.2" stroke-linecap="round"/><line x1="427.1" y1="95.1" x2="426.9" y2="95.1" stroke="#1a1a2e" stroke-width="1.2" stroke-linecap="round"/><line x1="427.4" y1="95.1" x2="427.1" y2="95.1" stroke="#1a1a2e" stroke-width="1.2" stroke-linecap="round"/><line x1="427.6" y1="95.1" x2="427.4" y2="95.1" stroke="#1a1a2e" stroke-width="1.2" stroke-linecap="round"/><line x1="427.8" y1="95.1" x2="427.6" y2="95.1" stroke="#1a1a2e" stroke-width="1.2" stroke-linecap="round"/><line x1="428.1" y1="95.1" x2="427.8" y2="95.1" stroke="#1a1a2e" stroke-width="1.2" stroke-linecap="round"/><line x1="428.3" y1="95.1" x2="428.1" y2="95.1" stroke="#1a1a2e" stroke-width="1.2" stroke-linecap="round"/><line x1="428.5" y1="95.1" x2="428.3" y2="95.1" stroke="#1a1a2e" stroke-width="1.2" stroke-linecap="round"/><line x1="428.8" y1="95.1" x2="428.5" y2="95.1" stroke="#1a1a2e" stroke-width="1.2" stroke-linecap="round"/><line x1="429.1" y1="95.1" x2="428.8" y2="95.1" stroke="#1a1a2e" stroke-width="1.2" stroke-linecap="round"/><line x1="429.3" y1="95.1" x2="429.1" y2="95.1" stroke="#1a1a2e" stroke-width="1.2" stroke-linecap="round"/><line x1="429.6" y1="95.1" x2="429.3" y2="95.1" stroke="#1a1a2e" stroke-width="1.2" stroke-linecap="round"/><line x1="429.9" y1="95.1" x2="429.6" y2="95.1" stroke="#1a1a2e" stroke-width="1.2" stroke-linecap="round"/><line x1="430.1" y1="95.1" x2="429.9" y2="95.1" stroke="#1a1a2e" stroke-width="1.2" stroke-linecap="round"/><line x1="430.4" y1="95.1" x2="430.1" y2="95.1" stroke="#1a1a2e" stroke-width="1.2" stroke-linecap="round"/><line x1="430.7" y1="95.1" x2="430.4" y2="95.1" stroke="#1a1a2e" stroke-width="1.2" stroke-linecap="round"/><line x1="430.9" y1="95.1" x2="430.7" y2="95.1" stroke="#1a1a2e" stroke-width="1.2" stroke-linecap="round"/><line x1="431.2" y1="95.1" x2="430.9" y2="95.1" stroke="#1a1a2e" stroke-width="1.2" stroke-linecap="round"/><line x1="431.4" y1="95.1" x2="431.2" y2="95.1" stroke="#1a1a2e" stroke-width="1.2" stroke-linecap="round"/><line x1="431.7" y1="95.1" x2="431.4" y2="95.1" stroke="#1a1a2e" stroke-width="1.2" stroke-linecap="round"/><line x1="431.9" y1="95.1" x2="431.7" y2="95.1" stroke="#1a1a2e" stroke-width="1.2" stroke-linecap="round"/><line x1="432.2" y1="95.1" x2="431.9" y2="95.1" stroke="#1a1a2e" stroke-width="1.2" stroke-linecap="round"/><line x1="432.4" y1="95.1" x2="432.2" y2="95.1" stroke="#1a1a2e" stroke-width="1.2" stroke-linecap="round"/><line x1="432.7" y1="95.1" x2="432.4" y2="95.1" stroke="#1a1a2e" stroke-width="1.2" stroke-linecap="round"/><line x1="432.9" y1="95.1" x2="432.7" y2="95.1" stroke="#1a1a2e" stroke-width="1.2" stroke-linecap="round"/><line x1="433.1" y1="95.1" x2="432.9" y2="95.1" stroke="#1a1a2e" stroke-width="1.2" stroke-linecap="round"/><line x1="433.3" y1="95.1" x2="433.1" y2="95.1" stroke="#1a1a2e" stroke-width="1.2" stroke-linecap="round"/><line x1="433.5" y1="95.1" x2="433.3" y2="95.1" stroke="#1a1a2e" stroke-width="1.2" stroke-linecap="round"/><line x1="433.7" y1="95.1" x2="433.5" y2="95.1" stroke="#1a1a2e" stroke-width="1.2" stroke-linecap="round"/><line x1="433.9" y1="95.1" x2="433.7" y2="95.1" stroke="#1a1a2e" stroke-width="1.2" stroke-linecap="round"/><line x1="434.1" y1="95.1" x2="433.9" y2="95.1" stroke="#1a1a2e" stroke-width="1.2" stroke-linecap="round"/><line x1="434.2" y1="95.1" x2="434.1" y2="95.1" stroke="#1a1a2e" stroke-width="1.2" stroke-linecap="round"/><line x1="434.4" y1="95.1" x2="434.2" y2="95.1" stroke="#1a1a2e" stroke-width="1.2" stroke-linecap="round"/><line x1="434.5" y1="95.1" x2="434.4" y2="95.1" stroke="#1a1a2e" stroke-width="1.2" stroke-linecap="round"/><line x1="452.0" y1="95.1" x2="434.5" y2="95.1" stroke="#1a1a2e" stroke-width="1.2" stroke-linecap="round"/><line x1="175.9" y1="357.2" x2="175.9" y2="128.8" stroke="#1a1a2e" stroke-width="1.2" stroke-linecap="round"/><line x1="175.9" y1="364.5" x2="175.9" y2="402.7" stroke="#1a1a2e" stroke-width="1.2" stroke-linecap="round"/><line x1="175.9" y1="357.2" x2="175.9" y2="364.5" stroke="#1a1a2e" stroke-width="1.2" stroke-linecap="round"/><line x1="175.9" y1="402.7" x2="175.9" y2="404.9" stroke="#1a1a2e" stroke-width="1.2" stroke-linecap="round"/><line x1="324.1" y1="128.8" x2="324.1" y2="357.2" stroke="#1a1a2e" stroke-width="1.2" stroke-linecap="round"/><line x1="324.1" y1="402.7" x2="324.1" y2="364.5" stroke="#1a1a2e" stroke-width="1.2" stroke-linecap="round"/><line x1="324.1" y1="364.5" x2="324.1" y2="357.2" stroke="#1a1a2e" stroke-width="1.2" stroke-linecap="round"/><line x1="324.1" y1="404.9" x2="324.1" y2="402.7" stroke="#1a1a2e" stroke-width="1.2" stroke-linecap="round"/><line x1="320.4" y1="404.9" x2="175.9" y2="404.9" stroke="#1a1a2e" stroke-width="1.2" stroke-linecap="round"/><line x1="320.4" y1="404.9" x2="324.1" y2="404.9" stroke="#1a1a2e" stroke-width="1.2" stroke-linecap="round"/></g><text x="48.0" y="418.9" text-anchor="start" font-size="9" fill="#777" font-family="monospace">-30.0</text><text x="452.0" y="418.9" text-anchor="end" font-size="9" fill="#777" font-family="monospace">30.0</text><text x="44.0" y="404.9" text-anchor="end" font-size="9" fill="#777" font-family="monospace">-41.0</text><text x="44.0" y="95.1" text-anchor="end" font-size="9" fill="#777" font-family="monospace">5.0</text><text x="250.0" y="494.0" text-anchor="middle" font-size="9" fill="#777" font-family="monospace">X (mm)</text><text x="12" y="250.0" text-anchor="middle" font-size="9" fill="#777" font-family="sans-serif" transform="rotate(-90 12 250.0)">Y (mm)</text><line x1="384.7" y1="430.8666666666667" x2="452.0" y2="430.8666666666667" stroke="#999" stroke-width="1.5"/><text x="418.3" y="441.8666666666667" text-anchor="middle" font-size="9" fill="#999" font-family="sans-serif">10 mm</text></svg>