<svg xmlns="http://www.w3.org/2000/svg" width="500" height="500"><rect width="500" height="500" fill="white" rx="3"/><rect x="48.0" y="234.5" width="404.0" height="31.0" fill="#f5f5f7" stroke="#e0e0e0" stroke-width="0.5"/><text x="250" y="18" text-anchor="middle" font-size="11" font-weight="600" fill="#333" font-family="sans-serif">X = -30.40 mm  ·  YZ plane</text><g><line x1="48.0" y1="234.5" x2="48.0" y2="261.3" stroke="#1a1a2e" stroke-width="1.2" stroke-linecap="round"/><line x1="48.0" y1="261.3" x2="48.0" y2="265.5" stroke="#1a1a2e" stroke-width="1.2" stroke-linecap="round"/><line x1="48.0" y1="265.5" x2="48.0" y2="265.5" stroke="#1a1a2e" stroke-width="1.2" stroke-linecap="round"/><line x1="48.0" y1="265.5" x2="48.7" y2="265.5" stroke="#1a1a2e" stroke-width="1.2" stroke-linecap="round"/><line x1="52.7" y1="265.5" x2="48.7" y2="265.5" stroke="#1a1a2e" stroke-width="1.2" stroke-linecap="round"/><line x1="52.7" y1="265.5" x2="60.5" y2="265.5" stroke="#1a1a2e" stroke-width="1.2" stroke-linecap="round"/><line x1="62.4" y1="265.5" x2="60.5" y2="265.5" stroke="#1a1a2e" stroke-width="1.2" stroke-linecap="round"/><line x1="63.4" y1="265.5" x2="62.4" y2="265.5" stroke="#1a1a2e" stroke-width="1.2" stroke-linecap="round"/><line x1="63.4" y1="265.5" x2="83.3" y2="265.5" stroke="#1a1a2e" stroke-width="1.2" stroke-linecap="round"/><line x1="271.4" y1="265.5" x2="278.5" y2="265.5" stroke="#1a1a2e" stroke-width="1.2" stroke-linecap="round"/><line x1="264.4" y1="265.5" x2="271.4" y2="265.5" stroke="#1a1a2e" stroke-width="1.2" stroke-linecap="round"/><line x1="257.7" y1="265.5" x2="264.4" y2="265.5" stroke="#1a1a2e" stroke-width="1.2" stroke-linecap="round"/><line x1="278.5" y1="265.5" x2="285.8" y2="265.5" stroke="#1a1a2e" stroke-width="1.2" stroke-linecap="round"/><line x1="285.8" y1="265.5" x2="293.3" y2="265.5" stroke="#1a1a2e" stroke-width="1.2" stroke-linecap="round"/><line x1="251.2" y1="265.5" x2="257.7" y2="265.5" stroke="#1a1a2e" stroke-width="1.2" stroke-linecap="round"/><line x1="293.3" y1="265.5" x2="300.8" y2="265.5" stroke="#1a1a2e" stroke-width="1.2" stroke-linecap="round"/><line x1="245.0" y1="265.5" x2="251.2" y2="265.5" stroke="#1a1a2e" stroke-width="1.2" stroke-linecap="round"/><line x1="239.1" y1="265.5" x2="245.0" y2="265.5" stroke="#1a1a2e" stroke-width="1.2" stroke-linecap="round"/><line x1="300.8" y1="265.5" x2="308.3" y2="265.5" stroke="#1a1a2e" stroke-width="1.2" stroke-linecap="round"/><line x1="308.3" y1="265.5" x2="315.7" y2="265.5" stroke="#1a1a2e" stroke-width="1.2" stroke-linecap="round"/><line x1="233.4" y1="265.5" x2="239.1" y2="265.5" stroke="#1a1a2e" stroke-width="1.2" stroke-linecap="round"/><line x1="315.7" y1="265.5" x2="322.9" y2="265.5" stroke="#1a1a2e" stroke-width="1.2" stroke-linecap="round"/><line x1="228.0" y1="265.5" x2="233.4" y2="265.5" stroke="#1a1a2e" stroke-width="1.2" stroke-linecap="round"/><line x1="322.9" y1="265.5" x2="329.9" y2="265.5" stroke="#1a1a2e" stroke-width="1.2" stroke-linecap="round"/><line x1="222.9" y1="265.5" x2="228.0" y2="265.5" stroke="#1a1a2e" stroke-width="1.2" stroke-linecap="round"/><line x1="218.1" y1="265.5" x2="222.9" y2="265.5" stroke="#1a1a2e" stroke-width="1.2" stroke-linecap="round"/><line x1="329.9" y1="265.5" x2="336.6" y2="265.5" stroke="#1a1a2e" stroke-width="1.2" stroke-linecap="round"/><line x1="336.6" y1="265.5" x2="342.9" y2="265.5" stroke="#1a1a2e" stroke-width="1.2" stroke-linecap="round"/><line x1="213.5" y1="265.5" x2="218.1" y2="265.5" stroke="#1a1a2e" stroke-width="1.2" stroke-linecap="round"/><line x1="209.2" y1="265.5" x2="213.5" y2="265.5" stroke="#1a1a2e" stroke-width="1.2" stroke-linecap="round"/><line x1="205.1" y1="265.5" x2="209.2" y2="265.5" stroke="#1a1a2e" stroke-width="1.2" stroke-linecap="round"/><line x1="201.3" y1="265.5" x2="205.1" y2="265.5" stroke="#1a1a2e" stroke-width="1.2" stroke-linecap="round"/><line x1="197.7" y1="265.5" x2="201.3" y2="265.5" stroke="#1a1a2e" stroke-width="1.2" stroke-linecap="round"/><line x1="194.3" y1="265.5" x2="197.7" y2="265.5" stroke="#1a1a2e" stroke-width="1.2" stroke-linecap="round"/><line x1="191.1" y1="265.5" x2="194.3" y2="265.5" stroke="#1a1a2e" stroke-width="1.2" stroke-linecap="round"/><line x1="365.6" y1="265.5" x2="342.9" y2="265.5" stroke="#1a1a2e" stroke-width="1.2" stroke-linecap="round"/><line x1="365.9" y1="265.5" x2="365.6" y2="265.5" stroke="#1a1a2e" stroke-width="1.2" stroke-linecap="round"/><line x1="366.5" y1="265.5" x2="365.9" y2="265.5" stroke="#1a1a2e" stroke-width="1.2" stroke-linecap="round"/><line x1="367.2" y1="265.5" x2="366.5" y2="265.5" stroke="#1a1a2e" stroke-width="1.2" stroke-linecap="round"/><line x1="368.1" y1="265.5" x2="367.2" y2="265.5" stroke="#1a1a2e" stroke-width="1.2" stroke-linecap="round"/><line x1="369.2" y1="265.5" x2="368.1" y2="265.5" stroke="#1a1a2e" stroke-width="1.2" stroke-linecap="round"/><line x1="370.4" y1="265.5" x2="369.2" y2="265.5" stroke="#1a1a2e" stroke-width="1.2" stroke-linecap="round"/><line x1="423.5" y1="265.5" x2="423.5" y2="265.5" stroke="#1a1a2e" stroke-width="1.2" stroke-linecap="round"/><line x1="423.5" y1="265.5" x2="423.5" y2="265.5" stroke="#1a1a2e" stroke-width="1.2" stroke-linecap="round"/><line x1="423.5" y1="265.5" x2="423.5" y2="265.5" stroke="#1a1a2e" stroke-width="1.2" stroke-linecap="round"/><line x1="423.4" y1="265.5" x2="423.5" y2="265.5" stroke="#1a1a2e" stroke-width="1.2" stroke-linecap="round"/><line x1="423.4" y1="265.5" x2="423.4" y2="265.5" stroke="#1a1a2e" stroke-width="1.2" stroke-linecap="round"/><line x1="370.4" y1="265.5" x2="423.4" y2="265.5" stroke="#1a1a2e" stroke-width="1.2" stroke-linecap="round"/><line x1="83.3" y1="265.5" x2="133.3" y2="265.5" stroke="#1a1a2e" stroke-width="1.2" stroke-linecap="round"/><line x1="133.3" y1="265.5" x2="191.1" y2="265.5" stroke="#1a1a2e" stroke-width="1.2" stroke-linecap="round"/><line x1="424.9" y1="265.5" x2="424.9" y2="265.5" stroke="#1a1a2e" stroke-width="1.2" stroke-linecap="round"/><line x1="423.5" y1="265.5" x2="424.9" y2="265.5" stroke="#1a1a2e" stroke-width="1.2" stroke-linecap="round"/><line x1="426.2" y1="265.5" x2="426.3" y2="265.5" stroke="#1a1a2e" stroke-width="1.2" stroke-linecap="round"/><line x1="424.9" y1="265.5" x2="426.2" y2="265.5" stroke="#1a1a2e" stroke-width="1.2" stroke-linecap="round"/><line x1="427.6" y1="265.5" x2="427.7" y2="265.5" stroke="#1a1a2e" stroke-width="1.2" stroke-linecap="round"/><line x1="426.3" y1="265.5" x2="427.6" y2="265.5" stroke="#1a1a2e" stroke-width="1.2" stroke-linecap="round"/><line x1="429.1" y1="265.5" x2="429.2" y2="265.5" stroke="#1a1a2e" stroke-width="1.2" stroke-linecap="round"/><line x1="429.0" y1="265.5" x2="429.1" y2="265.5" stroke="#1a1a2e" stroke-width="1.2" stroke-linecap="round"/><line x1="427.7" y1="265.5" x2="429.0" y2="265.5" stroke="#1a1a2e" stroke-width="1.2" stroke-linecap="round"/><line x1="430.6" y1="265.5" x2="430.7" y2="265.5" stroke="#1a1a2e" stroke-width="1.2" stroke-linecap="round"/><line x1="429.2" y1="265.5" x2="430.6" y2="265.5" stroke="#1a1a2e" stroke-width="1.2" stroke-linecap="round"/><line x1="430.7" y1="265.5" x2="432.1" y2="265.5" stroke="#1a1a2e" stroke-width="1.2" stroke-linecap="round"/><line x1="432.1" y1="265.5" x2="432.3" y2="265.5" stroke="#1a1a2e" stroke-width="1.2" stroke-linecap="round"/><line x1="433.6" y1="265.5" x2="433.9" y2="265.5" stroke="#1a1a2e" stroke-width="1.2" stroke-linecap="round"/><line x1="432.3" y1="265.5" x2="433.6" y2="265.5" stroke="#1a1a2e" stroke-width="1.2" stroke-linecap="round"/><line x1="433.9" y1="265.5" x2="435.2" y2="265.5" stroke="#1a1a2e" stroke-width="1.2" stroke-linecap="round"/><line x1="435.2" y1="265.5" x2="435.7" y2="265.5" stroke="#1a1a2e" stroke-width="1.2" stroke-linecap="round"/><line x1="436.9" y1="265.5" x2="437.5" y2="265.5" stroke="#1a1a2e" stroke-width="1.2" stroke-linecap="round"/><line x1="435.7" y1="265.5" x2="436.9" y2="265.5" stroke="#1a1a2e" stroke-width="1.2" stroke-linecap="round"/><line x1="438.7" y1="265.5" x2="439.4" y2="265.5" stroke="#1a1a2e" stroke-width="1.2" stroke-linecap="round"/><line x1="437.5" y1="265.5" x2="438.7" y2="265.5" stroke="#1a1a2e" stroke-width="1.2" stroke-linecap="round"/><line x1="440.5" y1="265.5" x2="441.5" y2="265.5" stroke="#1a1a2e" stroke-width="1.2" stroke-linecap="round"/><line x1="439.4" y1="265.5" x2="440.5" y2="265.5" stroke="#1a1a2e" stroke-width="1.2" stroke-linecap="round"/><line x1="441.5" y1="265.5" x2="442.5" y2="265.5" stroke="#1a1a2e" stroke-width="1.2" stroke-linecap="round"/><line x1="443.8" y1="265.5" x2="442.5" y2="265.5" stroke="#1a1a2e" stroke-width="1.2" stroke-linecap="round"/><line x1="443.8" y1="265.5" x2="444.7" y2="265.5" stroke="#1a1a2e" stroke-width="1.2" stroke-linecap="round"/><line x1="446.3" y1="265.5" x2="444.7" y2="265.5" stroke="#1a1a2e" stroke-width="1.2" stroke-linecap="round"/><line x1="446.3" y1="265.5" x2="447.0" y2="265.5" stroke="#1a1a2e" stroke-width="1.2" stroke-linecap="round"/><line x1="449.5" y1="265.5" x2="449.2" y2="265.5" stroke="#1a1a2e" stroke-width="1.2" stroke-linecap="round"/><line x1="449.2" y1="265.5" x2="447.0" y2="265.5" stroke="#1a1a2e" stroke-width="1.2" stroke-linecap="round"/><line x1="449.5" y1="265.5" x2="452.0" y2="265.5" stroke="#1a1a2e" stroke-width="1.2" stroke-linecap="round"/><line x1="54.3" y1="234.5" x2="54.0" y2="234.5" stroke="#1a1a2e" stroke-width="1.2" stroke-linecap="round"/><line x1="54.6" y1="234.5" x2="54.3" y2="234.5" stroke="#1a1a2e" stroke-width="1.2" stroke-linecap="round"/><line x1="54.0" y1="234.5" x2="51.2" y2="234.5" stroke="#1a1a2e" stroke-width="1.2" stroke-linecap="round"/><line x1="51.2" y1="234.5" x2="48.0" y2="234.5" stroke="#1a1a2e" stroke-width="1.2" stroke-linecap="round"/><line x1="445.6" y1="234.5" x2="445.4" y2="234.5" stroke="#1a1a2e" stroke-width="1.2" stroke-linecap="round"/><line x1="445.6" y1="234.5" x2="445.7" y2="234.5" stroke="#1a1a2e" stroke-width="1.2" stroke-linecap="round"/><line x1="445.7" y1="234.5" x2="446.0" y2="234.5" stroke="#1a1a2e" stroke-width="1.2" stroke-linecap="round"/><line x1="446.0" y1="234.5" x2="448.8" y2="234.5" stroke="#1a1a2e" stroke-width="1.2" stroke-linecap="round"/><line x1="449.9" y1="234.5" x2="448.8" y2="234.5" stroke="#1a1a2e" stroke-width="1.2" stroke-linecap="round"/><line x1="452.0" y1="234.5" x2="449.9" y2="234.5" stroke="#1a1a2e" stroke-width="1.2" stroke-linecap="round"/><line x1="452.0" y1="234.5" x2="452.0" y2="238.7" stroke="#1a1a2e" stroke-width="1.2" stroke-linecap="round"/><line x1="452.0" y1="238.7" x2="452.0" y2="265.5" stroke="#1a1a2e" stroke-width="1.2" stroke-linecap="round"/><line x1="54.6" y1="258.6" x2="54.6" y2="234.5" stroke="#1a1a2e" stroke-width="1.2" stroke-linecap="round"/><line x1="54.6" y1="261.4" x2="54.6" y2="258.6" stroke="#1a1a2e" stroke-width="1.2" stroke-linecap="round"/><line x1="445.4" y1="261.4" x2="445.4" y2="237.3" stroke="#1a1a2e" stroke-width="1.2" stroke-linecap="round"/><line x1="445.4" y1="237.3" x2="445.4" y2="234.5" stroke="#1a1a2e" stroke-width="1.2" stroke-linecap="round"/><line x1="54.6" y1="261.4" x2="54.6" y2="261.4" stroke="#1a1a2e" stroke-width="1.2" stroke-linecap="round"/><line x1="55.3" y1="261.4" x2="54.9" y2="261.4" stroke="#1a1a2e" stroke-width="1.2" stroke-linecap="round"/><line x1="54.9" y1="261.4" x2="54.6" y2="261.4" stroke="#1a1a2e" stroke-width="1.2" stroke-linecap="round"/><line x1="55.3" y1="261.4" x2="56.5" y2="261.4" stroke="#1a1a2e" stroke-width="1.2" stroke-linecap="round"/><line x1="60.3" y1="261.4" x2="56.5" y2="261.4" stroke="#1a1a2e" stroke-width="1.2" stroke-linecap="round"/><line x1="60.3" y1="261.4" x2="67.5" y2="261.4" stroke="#1a1a2e" stroke-width="1.2" stroke-linecap="round"/><line x1="68.9" y1="261.4" x2="67.5" y2="261.4" stroke="#1a1a2e" stroke-width="1.2" stroke-linecap="round"/><line x1="83.3" y1="261.4" x2="68.9" y2="261.4" stroke="#1a1a2e" stroke-width="1.2" stroke-linecap="round"/><line x1="345.8" y1="261.4" x2="344.8" y2="261.4" stroke="#1a1a2e" stroke-width="1.2" stroke-linecap="round"/><line x1="344.8" y1="261.4" x2="343.8" y2="261.4" stroke="#1a1a2e" stroke-width="1.2" stroke-linecap="round"/><line x1="347.0" y1="261.4" x2="345.8" y2="261.4" stroke="#1a1a2e" stroke-width="1.2" stroke-linecap="round"/><line x1="343.8" y1="261.4" x2="342.9" y2="261.4" stroke="#1a1a2e" stroke-width="1.2" stroke-linecap="round"/><line x1="348.2" y1="261.4" x2="347.0" y2="261.4" stroke="#1a1a2e" stroke-width="1.2" stroke-linecap="round"/><line x1="342.9" y1="261.4" x2="342.2" y2="261.4" stroke="#1a1a2e" stroke-width="1.2" stroke-linecap="round"/><line x1="349.6" y1="261.4" x2="348.2" y2="261.4" stroke="#1a1a2e" stroke-width="1.2" stroke-linecap="round"/><line x1="342.2" y1="261.4" x2="341.5" y2="261.4" stroke="#1a1a2e" stroke-width="1.2" stroke-linecap="round"/><line x1="351.0" y1="261.4" x2="349.6" y2="261.4" stroke="#1a1a2e" stroke-width="1.2" stroke-linecap="round"/><line x1="341.5" y1="261.4" x2="340.8" y2="261.4" stroke="#1a1a2e" stroke-width="1.2" stroke-linecap="round"/><line x1="352.5" y1="261.4" x2="351.0" y2="261.4" stroke="#1a1a2e" stroke-width="1.2" stroke-linecap="round"/><line x1="340.3" y1="261.4" x2="333.2" y2="261.4" stroke="#1a1a2e" stroke-width="1.2" stroke-linecap="round"/><line x1="340.8" y1="261.4" x2="340.3" y2="261.4" stroke="#1a1a2e" stroke-width="1.2" stroke-linecap="round"/><line x1="354.2" y1="261.4" x2="352.5" y2="261.4" stroke="#1a1a2e" stroke-width="1.2" stroke-linecap="round"/><line x1="359.8" y1="261.4" x2="354.2" y2="261.4" stroke="#1a1a2e" stroke-width="1.2" stroke-linecap="round"/><line x1="333.2" y1="261.4" x2="332.5" y2="261.4" stroke="#1a1a2e" stroke-width="1.2" stroke-linecap="round"/><line x1="360.6" y1="261.4" x2="359.8" y2="261.4" stroke="#1a1a2e" stroke-width="1.2" stroke-linecap="round"/><line x1="332.5" y1="261.4" x2="331.8" y2="261.4" stroke="#1a1a2e" stroke-width="1.2" stroke-linecap="round"/><line x1="361.5" y1="261.4" x2="360.6" y2="261.4" stroke="#1a1a2e" stroke-width="1.2" stroke-linecap="round"/><line x1="331.8" y1="261.4" x2="331.2" y2="261.4" stroke="#1a1a2e" stroke-width="1.2" stroke-linecap="round"/><line x1="362.4" y1="261.4" x2="361.5" y2="261.4" stroke="#1a1a2e" stroke-width="1.2" stroke-linecap="round"/><line x1="331.2" y1="261.4" x2="330.7" y2="261.4" stroke="#1a1a2e" stroke-width="1.2" stroke-linecap="round"/><line x1="363.5" y1="261.4" x2="362.4" y2="261.4" stroke="#1a1a2e" stroke-width="1.2" stroke-linecap="round"/><line x1="330.7" y1="261.4" x2="330.2" y2="261.4" stroke="#1a1a2e" stroke-width="1.2" stroke-linecap="round"/><line x1="364.7" y1="261.4" x2="363.5" y2="261.4" stroke="#1a1a2e" stroke-width="1.2" stroke-linecap="round"/><line x1="330.2" y1="261.4" x2="329.7" y2="261.4" stroke="#1a1a2e" stroke-width="1.2" stroke-linecap="round"/><line x1="365.9" y1="261.4" x2="364.7" y2="261.4" stroke="#1a1a2e" stroke-width="1.2" stroke-linecap="round"/><line x1="329.7" y1="261.4" x2="329.4" y2="261.4" stroke="#1a1a2e" stroke-width="1.2" stroke-linecap="round"/><line x1="367.2" y1="261.4" x2="365.9" y2="261.4" stroke="#1a1a2e" stroke-width="1.2" stroke-linecap="round"/><line x1="329.0" y1="261.4" x2="307.9" y2="261.4" stroke="#1a1a2e" stroke-width="1.2" stroke-linecap="round"/><line x1="329.4" y1="261.4" x2="329.0" y2="261.4" stroke="#1a1a2e" stroke-width="1.2" stroke-linecap="round"/><line x1="368.5" y1="261.4" x2="367.2" y2="261.4" stroke="#1a1a2e" stroke-width="1.2" stroke-linecap="round"/><line x1="307.9" y1="261.4" x2="307.2" y2="261.4" stroke="#1a1a2e" stroke-width="1.2" stroke-linecap="round"/><line x1="369.8" y1="261.4" x2="368.5" y2="261.4" stroke="#1a1a2e" stroke-width="1.2" stroke-linecap="round"/><line x1="307.2" y1="261.4" x2="306.6" y2="261.4" stroke="#1a1a2e" stroke-width="1.2" stroke-linecap="round"/><line x1="369.8" y1="261.4" x2="370.2" y2="261.4" stroke="#1a1a2e" stroke-width="1.2" stroke-linecap="round"/><line x1="423.5" y1="261.4" x2="423.5" y2="261.4" stroke="#1a1a2e" stroke-width="1.2" stroke-linecap="round"/><line x1="423.5" y1="261.4" x2="423.5" y2="261.4" stroke="#1a1a2e" stroke-width="1.2" stroke-linecap="round"/><line x1="423.5" y1="261.4" x2="423.4" y2="261.4" stroke="#1a1a2e" stroke-width="1.2" stroke-linecap="round"/><line x1="423.4" y1="261.4" x2="423.4" y2="261.4" stroke="#1a1a2e" stroke-width="1.2" stroke-linecap="round"/><line x1="423.4" y1="261.4" x2="423.4" y2="261.4" stroke="#1a1a2e" stroke-width="1.2" stroke-linecap="round"/><line x1="423.3" y1="261.4" x2="422.9" y2="261.4" stroke="#1a1a2e" stroke-width="1.2" stroke-linecap="round"/><line x1="422.9" y1="261.4" x2="370.2" y2="261.4" stroke="#1a1a2e" stroke-width="1.2" stroke-linecap="round"/><line x1="423.4" y1="261.4" x2="423.3" y2="261.4" stroke="#1a1a2e" stroke-width="1.2" stroke-linecap="round"/><line x1="306.6" y1="261.4" x2="296.3" y2="261.4" stroke="#1a1a2e" stroke-width="1.2" stroke-linecap="round"/><line x1="424.9" y1="261.4" x2="423.5" y2="261.4" stroke="#1a1a2e" stroke-width="1.2" stroke-linecap="round"/><line x1="424.9" y1="261.4" x2="424.9" y2="261.4" stroke="#1a1a2e" stroke-width="1.2" stroke-linecap="round"/><line x1="424.9" y1="261.4" x2="424.9" y2="261.4" stroke="#1a1a2e" stroke-width="1.2" stroke-linecap="round"/><line x1="426.3" y1="261.4" x2="424.9" y2="261.4" stroke="#1a1a2e" stroke-width="1.2" stroke-linecap="round"/><line x1="426.3" y1="261.4" x2="426.3" y2="261.4" stroke="#1a1a2e" stroke-width="1.2" stroke-linecap="round"/><line x1="427.7" y1="261.4" x2="426.3" y2="261.4" stroke="#1a1a2e" stroke-width="1.2" stroke-linecap="round"/><line x1="427.7" y1="261.4" x2="427.7" y2="261.4" stroke="#1a1a2e" stroke-width="1.2" stroke-linecap="round"/><line x1="429.1" y1="261.4" x2="427.7" y2="261.4" stroke="#1a1a2e" stroke-width="1.2" stroke-linecap="round"/><line x1="429.2" y1="261.4" x2="429.1" y2="261.4" stroke="#1a1a2e" stroke-width="1.2" stroke-linecap="round"/><line x1="430.5" y1="261.4" x2="429.2" y2="261.4" stroke="#1a1a2e" stroke-width="1.2" stroke-linecap="round"/><line x1="430.7" y1="261.4" x2="430.5" y2="261.4" stroke="#1a1a2e" stroke-width="1.2" stroke-linecap="round"/><line x1="432.0" y1="261.4" x2="430.7" y2="261.4" stroke="#1a1a2e" stroke-width="1.2" stroke-linecap="round"/><line x1="432.2" y1="261.4" x2="432.0" y2="261.4" stroke="#1a1a2e" stroke-width="1.2" stroke-linecap="round"/><line x1="433.8" y1="261.4" x2="433.5" y2="261.4" stroke="#1a1a2e" stroke-width="1.2" stroke-linecap="round"/><line x1="433.5" y1="261.4" x2="432.2" y2="261.4" stroke="#1a1a2e" stroke-width="1.2" stroke-linecap="round"/><line x1="435.5" y1="261.4" x2="435.0" y2="261.4" stroke="#1a1a2e" stroke-width="1.2" stroke-linecap="round"/><line x1="435.0" y1="261.4" x2="433.8" y2="261.4" stroke="#1a1a2e" stroke-width="1.2" stroke-linecap="round"/><line x1="95.9" y1="261.4" x2="83.3" y2="261.4" stroke="#1a1a2e" stroke-width="1.2" stroke-linecap="round"/><line x1="286.1" y1="261.4" x2="95.9" y2="261.4" stroke="#1a1a2e" stroke-width="1.2" stroke-linecap="round"/><line x1="296.3" y1="261.4" x2="286.1" y2="261.4" stroke="#1a1a2e" stroke-width="1.2" stroke-linecap="round"/><line x1="437.3" y1="261.4" x2="436.6" y2="261.4" stroke="#1a1a2e" stroke-width="1.2" stroke-linecap="round"/><line x1="436.6" y1="261.4" x2="435.5" y2="261.4" stroke="#1a1a2e" stroke-width="1.2" stroke-linecap="round"/><line x1="439.1" y1="261.4" x2="438.2" y2="261.4" stroke="#1a1a2e" stroke-width="1.2" stroke-linecap="round"/><line x1="438.2" y1="261.4" x2="437.3" y2="261.4" stroke="#1a1a2e" stroke-width="1.2" stroke-linecap="round"/><line x1="441.1" y1="261.4" x2="439.9" y2="261.4" stroke="#1a1a2e" stroke-width="1.2" stroke-linecap="round"/><line x1="439.9" y1="261.4" x2="439.1" y2="261.4" stroke="#1a1a2e" stroke-width="1.2" stroke-linecap="round"/><line x1="443.3" y1="261.4" x2="441.7" y2="261.4" stroke="#1a1a2e" stroke-width="1.2" stroke-linecap="round"/><line x1="441.7" y1="261.4" x2="441.1" y2="261.4" stroke="#1a1a2e" stroke-width="1.2" stroke-linecap="round"/><line x1="443.6" y1="261.4" x2="443.3" y2="261.4" stroke="#1a1a2e" stroke-width="1.2" stroke-linecap="round"/><line x1="445.4" y1="261.4" x2="443.6" y2="261.4" stroke="#1a1a2e" stroke-width="1.2" stroke-linecap="round"/></g><text x="48.0" y="279.5" text-anchor="start" font-size="9" fill="#777" font-family="monospace">-73.4</text><text x="452.0" y="279.5" text-anchor="end" font-size="9" fill="#777" font-family="monospace">73.4</text><text x="44.0" y="265.5" text-anchor="end" font-size="9" fill="#777" font-family="monospace">0.0</text><text x="44.0" y="234.5" text-anchor="end" font-size="9" fill="#777" font-family="monospace">11.2</text><text x="250.0" y="494.0" text-anchor="middle" font-size="9" fill="#777" font-family="monospace">Y (mm)</text><text x="12" y="250.0" text-anchor="middle" font-size="9" fill="#777" font-family="sans-serif" transform="rotate(-90 12 250.0)">Z (mm)</text><line x1="314.4" y1="291.4776211702495" x2="452.0" y2="291.4776211702495" stroke="#999" stroke-width="1.5"/><text x="383.2" y="302.4776211702495" text-anchor="middle" font-size="9" fill="#999" font-family="sans-serif">50 mm</text></svg>