<svg xmlns="http://www.w3.org/2000/svg" width="500" height="500"><rect width="500" height="500" fill="white" rx="3"/><rect x="48.0" y="235.0" width="404.0" height="30.1" fill="#f5f5f7" stroke="#e0e0e0" stroke-width="0.5"/><text x="250" y="18" text-anchor="middle" font-size="11" font-weight="600" fill="#333" font-family="sans-serif">X = 3.80 mm  ·  YZ plane</text><g><line x1="65.6" y1="265.0" x2="88.1" y2="265.0" stroke="#1a1a2e" stroke-width="1.2" stroke-linecap="round"/><line x1="48.0" y1="265.0" x2="65.6" y2="265.0" stroke="#1a1a2e" stroke-width="1.2" stroke-linecap="round"/><line x1="312.4" y1="265.0" x2="88.1" y2="265.0" stroke="#1a1a2e" stroke-width="1.2" stroke-linecap="round"/><line x1="315.4" y1="265.0" x2="312.4" y2="265.0" stroke="#1a1a2e" stroke-width="1.2" stroke-linecap="round"/><line x1="318.5" y1="265.0" x2="315.4" y2="265.0" stroke="#1a1a2e" stroke-width="1.2" stroke-linecap="round"/><line x1="321.7" y1="265.0" x2="318.5" y2="265.0" stroke="#1a1a2e" stroke-width="1.2" stroke-linecap="round"/><line x1="325.1" y1="265.0" x2="321.7" y2="265.0" stroke="#1a1a2e" stroke-width="1.2" stroke-linecap="round"/><line x1="328.6" y1="265.0" x2="325.1" y2="265.0" stroke="#1a1a2e" stroke-width="1.2" stroke-linecap="round"/><line x1="332.2" y1="265.0" x2="328.6" y2="265.0" stroke="#1a1a2e" stroke-width="1.2" stroke-linecap="round"/><line x1="335.8" y1="265.0" x2="332.2" y2="265.0" stroke="#1a1a2e" stroke-width="1.2" stroke-linecap="round"/><line x1="339.6" y1="265.0" x2="335.8" y2="265.0" stroke="#1a1a2e" stroke-width="1.2" stroke-linecap="round"/><line x1="339.6" y1="265.0" x2="342.0" y2="265.0" stroke="#1a1a2e" stroke-width="1.2" stroke-linecap="round"/><line x1="446.0" y1="265.0" x2="446.3" y2="265.0" stroke="#1a1a2e" stroke-width="1.2" stroke-linecap="round"/><line x1="445.8" y1="265.0" x2="446.0" y2="265.0" stroke="#1a1a2e" stroke-width="1.2" stroke-linecap="round"/><line x1="445.4" y1="265.0" x2="445.8" y2="265.0" stroke="#1a1a2e" stroke-width="1.2" stroke-linecap="round"/><line x1="445.0" y1="265.0" x2="445.4" y2="265.0" stroke="#1a1a2e" stroke-width="1.2" stroke-linecap="round"/><line x1="444.5" y1="265.0" x2="445.0" y2="265.0" stroke="#1a1a2e" stroke-width="1.2" stroke-linecap="round"/><line x1="443.9" y1="265.0" x2="444.5" y2="265.0" stroke="#1a1a2e" stroke-width="1.2" stroke-linecap="round"/><line x1="443.3" y1="265.0" x2="443.9" y2="265.0" stroke="#1a1a2e" stroke-width="1.2" stroke-linecap="round"/><line x1="442.8" y1="265.0" x2="443.3" y2="265.0" stroke="#1a1a2e" stroke-width="1.2" stroke-linecap="round"/><line x1="446.4" y1="265.0" x2="452.0" y2="265.0" stroke="#1a1a2e" stroke-width="1.2" stroke-linecap="round"/><line x1="446.3" y1="265.0" x2="446.4" y2="265.0" stroke="#1a1a2e" stroke-width="1.2" stroke-linecap="round"/><line x1="51.1" y1="235.0" x2="48.0" y2="235.0" stroke="#1a1a2e" stroke-width="1.2" stroke-linecap="round"/><line x1="53.3" y1="235.0" x2="51.1" y2="235.0" stroke="#1a1a2e" stroke-width="1.2" stroke-linecap="round"/><line x1="448.9" y1="235.0" x2="446.7" y2="235.0" stroke="#1a1a2e" stroke-width="1.2" stroke-linecap="round"/><line x1="452.0" y1="235.0" x2="448.9" y2="235.0" stroke="#1a1a2e" stroke-width="1.2" stroke-linecap="round"/><line x1="48.0" y1="241.8" x2="48.0" y2="244.9" stroke="#1a1a2e" stroke-width="1.2" stroke-linecap="round"/><line x1="48.0" y1="235.0" x2="48.0" y2="241.8" stroke="#1a1a2e" stroke-width="1.2" stroke-linecap="round"/><line x1="48.0" y1="257.6" x2="48.0" y2="265.0" stroke="#1a1a2e" stroke-width="1.2" stroke-linecap="round"/><line x1="48.0" y1="254.3" x2="48.0" y2="257.6" stroke="#1a1a2e" stroke-width="1.2" stroke-linecap="round"/><line x1="452.0" y1="247.5" x2="452.0" y2="235.0" stroke="#1a1a2e" stroke-width="1.2" stroke-linecap="round"/><line x1="452.0" y1="265.0" x2="452.0" y2="247.5" stroke="#1a1a2e" stroke-width="1.2" stroke-linecap="round"/><line x1="342.0" y1="265.0" x2="342.0" y2="263.5" stroke="#1a1a2e" stroke-width="1.2" stroke-linecap="round"/><line x1="342.0" y1="263.5" x2="342.0" y2="261.0" stroke="#1a1a2e" stroke-width="1.2" stroke-linecap="round"/><line x1="442.8" y1="261.0" x2="442.8" y2="263.5" stroke="#1a1a2e" stroke-width="1.2" stroke-linecap="round"/><line x1="442.8" y1="265.0" x2="442.8" y2="263.5" stroke="#1a1a2e" stroke-width="1.2" stroke-linecap="round"/><line x1="53.3" y1="244.9" x2="53.3" y2="244.6" stroke="#1a1a2e" stroke-width="1.2" stroke-linecap="round"/><line x1="53.3" y1="244.6" x2="53.3" y2="235.0" stroke="#1a1a2e" stroke-width="1.2" stroke-linecap="round"/><line x1="53.3" y1="261.0" x2="53.3" y2="256.4" stroke="#1a1a2e" stroke-width="1.2" stroke-linecap="round"/><line x1="53.3" y1="256.4" x2="53.3" y2="254.3" stroke="#1a1a2e" stroke-width="1.2" stroke-linecap="round"/><line x1="446.7" y1="235.0" x2="446.7" y2="245.8" stroke="#1a1a2e" stroke-width="1.2" stroke-linecap="round"/><line x1="446.7" y1="245.8" x2="446.7" y2="261.0" stroke="#1a1a2e" stroke-width="1.2" stroke-linecap="round"/><line x1="88.1" y1="261.0" x2="69.1" y2="261.0" stroke="#1a1a2e" stroke-width="1.2" stroke-linecap="round"/><line x1="69.1" y1="261.0" x2="53.3" y2="261.0" stroke="#1a1a2e" stroke-width="1.2" stroke-linecap="round"/><line x1="180.8" y1="261.0" x2="88.1" y2="261.0" stroke="#1a1a2e" stroke-width="1.2" stroke-linecap="round"/><line x1="269.7" y1="261.0" x2="180.8" y2="261.0" stroke="#1a1a2e" stroke-width="1.2" stroke-linecap="round"/><line x1="330.0" y1="261.0" x2="269.7" y2="261.0" stroke="#1a1a2e" stroke-width="1.2" stroke-linecap="round"/><line x1="339.3" y1="261.0" x2="337.7" y2="261.0" stroke="#1a1a2e" stroke-width="1.2" stroke-linecap="round"/><line x1="337.7" y1="261.0" x2="336.2" y2="261.0" stroke="#1a1a2e" stroke-width="1.2" stroke-linecap="round"/><line x1="336.2" y1="261.0" x2="334.8" y2="261.0" stroke="#1a1a2e" stroke-width="1.2" stroke-linecap="round"/><line x1="334.8" y1="261.0" x2="333.4" y2="261.0" stroke="#1a1a2e" stroke-width="1.2" stroke-linecap="round"/><line x1="333.4" y1="261.0" x2="332.2" y2="261.0" stroke="#1a1a2e" stroke-width="1.2" stroke-linecap="round"/><line x1="332.2" y1="261.0" x2="331.1" y2="261.0" stroke="#1a1a2e" stroke-width="1.2" stroke-linecap="round"/><line x1="331.1" y1="261.0" x2="330.0" y2="261.0" stroke="#1a1a2e" stroke-width="1.2" stroke-linecap="round"/><line x1="339.3" y1="261.0" x2="340.9" y2="261.0" stroke="#1a1a2e" stroke-width="1.2" stroke-linecap="round"/><line x1="342.0" y1="261.0" x2="340.9" y2="261.0" stroke="#1a1a2e" stroke-width="1.2" stroke-linecap="round"/><line x1="445.3" y1="261.0" x2="445.1" y2="261.0" stroke="#1a1a2e" stroke-width="1.2" stroke-linecap="round"/><line x1="445.1" y1="261.0" x2="444.9" y2="261.0" stroke="#1a1a2e" stroke-width="1.2" stroke-linecap="round"/><line x1="444.9" y1="261.0" x2="444.6" y2="261.0" stroke="#1a1a2e" stroke-width="1.2" stroke-linecap="round"/><line x1="444.6" y1="261.0" x2="444.2" y2="261.0" stroke="#1a1a2e" stroke-width="1.2" stroke-linecap="round"/><line x1="444.2" y1="261.0" x2="443.7" y2="261.0" stroke="#1a1a2e" stroke-width="1.2" stroke-linecap="round"/><line x1="443.7" y1="261.0" x2="443.2" y2="261.0" stroke="#1a1a2e" stroke-width="1.2" stroke-linecap="round"/><line x1="443.2" y1="261.0" x2="442.8" y2="261.0" stroke="#1a1a2e" stroke-width="1.2" stroke-linecap="round"/><line x1="446.7" y1="261.0" x2="445.4" y2="261.0" stroke="#1a1a2e" stroke-width="1.2" stroke-linecap="round"/><line x1="445.4" y1="261.0" x2="445.4" y2="261.0" stroke="#1a1a2e" stroke-width="1.2" stroke-linecap="round"/><line x1="445.4" y1="261.0" x2="445.3" y2="261.0" stroke="#1a1a2e" stroke-width="1.2" stroke-linecap="round"/><line x1="52.8" y1="244.9" x2="53.3" y2="244.9" stroke="#1a1a2e" stroke-width="1.2" stroke-linecap="round"/><line x1="48.0" y1="244.9" x2="52.8" y2="244.9" stroke="#1a1a2e" stroke-width="1.2" stroke-linecap="round"/><line x1="53.3" y1="254.3" x2="52.8" y2="254.3" stroke="#1a1a2e" stroke-width="1.2" stroke-linecap="round"/><line x1="52.8" y1="254.3" x2="48.0" y2="254.3" stroke="#1a1a2e" stroke-width="1.2" stroke-linecap="round"/></g><text x="48.0" y="279.0" text-anchor="start" font-size="9" fill="#777" font-family="monospace">-75.6</text><text x="452.0" y="279.0" text-anchor="end" font-size="9" fill="#777" font-family="monospace">75.6</text><text x="44.0" y="265.0" text-anchor="end" font-size="9" fill="#777" font-family="monospace">0.0</text><text x="44.0" y="235.0" text-anchor="end" font-size="9" fill="#777" font-family="monospace">11.2</text><text x="250.0" y="494.0" text-anchor="middle" font-size="9" fill="#777" font-family="monospace">Y (mm)</text><text x="12" y="250.0" text-anchor="middle" font-size="9" fill="#777" font-family="sans-serif" transform="rotate(-90 12 250.0)">Z (mm)</text><line x1="318.4" y1="291.0297622081164" x2="452.0" y2="291.0297622081164" stroke="#999" stroke-width="1.5"/><text x="385.2" y="302.0297622081164" text-anchor="middle" font-size="9" fill="#999" font-family="sans-serif">50 mm</text></svg>