<svg xmlns="http://www.w3.org/2000/svg" width="500" height="500"><rect width="500" height="500" fill="white" rx="3"/><rect x="48.0" y="235.0" width="404.0" height="30.1" fill="#f5f5f7" stroke="#e0e0e0" stroke-width="0.5"/><text x="250" y="18" text-anchor="middle" font-size="11" font-weight="600" fill="#333" font-family="sans-serif">X = 22.80 mm  ·  YZ plane</text><g><line x1="48.0" y1="265.0" x2="48.1" y2="265.0" stroke="#1a1a2e" stroke-width="1.2" stroke-linecap="round"/><line x1="48.1" y1="265.0" x2="48.1" y2="265.0" stroke="#1a1a2e" stroke-width="1.2" stroke-linecap="round"/><line x1="48.1" y1="265.0" x2="48.1" y2="265.0" stroke="#1a1a2e" stroke-width="1.2" stroke-linecap="round"/><line x1="48.1" y1="265.0" x2="48.1" y2="265.0" stroke="#1a1a2e" stroke-width="1.2" stroke-linecap="round"/><line x1="48.1" y1="265.0" x2="48.2" y2="265.0" stroke="#1a1a2e" stroke-width="1.2" stroke-linecap="round"/><line x1="48.2" y1="265.0" x2="48.3" y2="265.0" stroke="#1a1a2e" stroke-width="1.2" stroke-linecap="round"/><line x1="48.3" y1="265.0" x2="48.3" y2="265.0" stroke="#1a1a2e" stroke-width="1.2" stroke-linecap="round"/><line x1="48.3" y1="265.0" x2="48.5" y2="265.0" stroke="#1a1a2e" stroke-width="1.2" stroke-linecap="round"/><line x1="78.2" y1="265.0" x2="88.1" y2="265.0" stroke="#1a1a2e" stroke-width="1.2" stroke-linecap="round"/><line x1="48.5" y1="265.0" x2="78.2" y2="265.0" stroke="#1a1a2e" stroke-width="1.2" stroke-linecap="round"/><line x1="48.5" y1="265.0" x2="48.5" y2="265.0" stroke="#1a1a2e" stroke-width="1.2" stroke-linecap="round"/><line x1="186.3" y1="265.0" x2="88.1" y2="265.0" stroke="#1a1a2e" stroke-width="1.2" stroke-linecap="round"/><line x1="187.6" y1="265.0" x2="186.3" y2="265.0" stroke="#1a1a2e" stroke-width="1.2" stroke-linecap="round"/><line x1="189.0" y1="265.0" x2="187.6" y2="265.0" stroke="#1a1a2e" stroke-width="1.2" stroke-linecap="round"/><line x1="190.4" y1="265.0" x2="189.0" y2="265.0" stroke="#1a1a2e" stroke-width="1.2" stroke-linecap="round"/><line x1="191.9" y1="265.0" x2="190.4" y2="265.0" stroke="#1a1a2e" stroke-width="1.2" stroke-linecap="round"/><line x1="193.4" y1="265.0" x2="191.9" y2="265.0" stroke="#1a1a2e" stroke-width="1.2" stroke-linecap="round"/><line x1="195.0" y1="265.0" x2="193.4" y2="265.0" stroke="#1a1a2e" stroke-width="1.2" stroke-linecap="round"/><line x1="196.6" y1="265.0" x2="195.0" y2="265.0" stroke="#1a1a2e" stroke-width="1.2" stroke-linecap="round"/><line x1="198.3" y1="265.0" x2="196.6" y2="265.0" stroke="#1a1a2e" stroke-width="1.2" stroke-linecap="round"/><line x1="200.0" y1="265.0" x2="198.3" y2="265.0" stroke="#1a1a2e" stroke-width="1.2" stroke-linecap="round"/><line x1="201.7" y1="265.0" x2="200.0" y2="265.0" stroke="#1a1a2e" stroke-width="1.2" stroke-linecap="round"/><line x1="203.5" y1="265.0" x2="201.7" y2="265.0" stroke="#1a1a2e" stroke-width="1.2" stroke-linecap="round"/><line x1="205.3" y1="265.0" x2="203.5" y2="265.0" stroke="#1a1a2e" stroke-width="1.2" stroke-linecap="round"/><line x1="207.1" y1="265.0" x2="205.3" y2="265.0" stroke="#1a1a2e" stroke-width="1.2" stroke-linecap="round"/><line x1="208.9" y1="265.0" x2="207.1" y2="265.0" stroke="#1a1a2e" stroke-width="1.2" stroke-linecap="round"/><line x1="210.8" y1="265.0" x2="208.9" y2="265.0" stroke="#1a1a2e" stroke-width="1.2" stroke-linecap="round"/><line x1="212.6" y1="265.0" x2="210.8" y2="265.0" stroke="#1a1a2e" stroke-width="1.2" stroke-linecap="round"/><line x1="214.5" y1="265.0" x2="212.6" y2="265.0" stroke="#1a1a2e" stroke-width="1.2" stroke-linecap="round"/><line x1="216.3" y1="265.0" x2="214.5" y2="265.0" stroke="#1a1a2e" stroke-width="1.2" stroke-linecap="round"/><line x1="218.1" y1="265.0" x2="216.3" y2="265.0" stroke="#1a1a2e" stroke-width="1.2" stroke-linecap="round"/><line x1="385.8" y1="265.0" x2="386.4" y2="265.0" stroke="#1a1a2e" stroke-width="1.2" stroke-linecap="round"/><line x1="385.2" y1="265.0" x2="385.8" y2="265.0" stroke="#1a1a2e" stroke-width="1.2" stroke-linecap="round"/><line x1="384.6" y1="265.0" x2="385.2" y2="265.0" stroke="#1a1a2e" stroke-width="1.2" stroke-linecap="round"/><line x1="384.1" y1="265.0" x2="384.6" y2="265.0" stroke="#1a1a2e" stroke-width="1.2" stroke-linecap="round"/><line x1="383.6" y1="265.0" x2="384.1" y2="265.0" stroke="#1a1a2e" stroke-width="1.2" stroke-linecap="round"/><line x1="383.1" y1="265.0" x2="383.6" y2="265.0" stroke="#1a1a2e" stroke-width="1.2" stroke-linecap="round"/><line x1="382.7" y1="265.0" x2="383.1" y2="265.0" stroke="#1a1a2e" stroke-width="1.2" stroke-linecap="round"/><line x1="382.3" y1="265.0" x2="382.7" y2="265.0" stroke="#1a1a2e" stroke-width="1.2" stroke-linecap="round"/><line x1="382.0" y1="265.0" x2="382.3" y2="265.0" stroke="#1a1a2e" stroke-width="1.2" stroke-linecap="round"/><line x1="381.7" y1="265.0" x2="382.0" y2="265.0" stroke="#1a1a2e" stroke-width="1.2" stroke-linecap="round"/><line x1="381.5" y1="265.0" x2="381.7" y2="265.0" stroke="#1a1a2e" stroke-width="1.2" stroke-linecap="round"/><line x1="218.1" y1="265.0" x2="381.5" y2="265.0" stroke="#1a1a2e" stroke-width="1.2" stroke-linecap="round"/><line x1="387.8" y1="265.0" x2="415.4" y2="265.0" stroke="#1a1a2e" stroke-width="1.2" stroke-linecap="round"/><line x1="387.1" y1="265.0" x2="387.8" y2="265.0" stroke="#1a1a2e" stroke-width="1.2" stroke-linecap="round"/><line x1="386.4" y1="265.0" x2="387.1" y2="265.0" stroke="#1a1a2e" stroke-width="1.2" stroke-linecap="round"/><line x1="450.6" y1="265.0" x2="452.0" y2="265.0" stroke="#1a1a2e" stroke-width="1.2" stroke-linecap="round"/><line x1="415.4" y1="265.0" x2="416.3" y2="265.0" stroke="#1a1a2e" stroke-width="1.2" stroke-linecap="round"/><line x1="448.9" y1="265.0" x2="450.6" y2="265.0" stroke="#1a1a2e" stroke-width="1.2" stroke-linecap="round"/><line x1="416.3" y1="265.0" x2="417.2" y2="265.0" stroke="#1a1a2e" stroke-width="1.2" stroke-linecap="round"/><line x1="447.2" y1="265.0" x2="448.9" y2="265.0" stroke="#1a1a2e" stroke-width="1.2" stroke-linecap="round"/><line x1="417.2" y1="265.0" x2="418.2" y2="265.0" stroke="#1a1a2e" stroke-width="1.2" stroke-linecap="round"/><line x1="445.6" y1="265.0" x2="447.2" y2="265.0" stroke="#1a1a2e" stroke-width="1.2" stroke-linecap="round"/><line x1="418.2" y1="265.0" x2="419.1" y2="265.0" stroke="#1a1a2e" stroke-width="1.2" stroke-linecap="round"/><line x1="444.1" y1="265.0" x2="445.6" y2="265.0" stroke="#1a1a2e" stroke-width="1.2" stroke-linecap="round"/><line x1="419.1" y1="265.0" x2="420.0" y2="265.0" stroke="#1a1a2e" stroke-width="1.2" stroke-linecap="round"/><line x1="442.6" y1="265.0" x2="444.1" y2="265.0" stroke="#1a1a2e" stroke-width="1.2" stroke-linecap="round"/><line x1="420.0" y1="265.0" x2="420.9" y2="265.0" stroke="#1a1a2e" stroke-width="1.2" stroke-linecap="round"/><line x1="441.2" y1="265.0" x2="442.6" y2="265.0" stroke="#1a1a2e" stroke-width="1.2" stroke-linecap="round"/><line x1="420.9" y1="265.0" x2="421.8" y2="265.0" stroke="#1a1a2e" stroke-width="1.2" stroke-linecap="round"/><line x1="439.9" y1="265.0" x2="441.2" y2="265.0" stroke="#1a1a2e" stroke-width="1.2" stroke-linecap="round"/><line x1="421.8" y1="265.0" x2="422.8" y2="265.0" stroke="#1a1a2e" stroke-width="1.2" stroke-linecap="round"/><line x1="438.6" y1="265.0" x2="439.9" y2="265.0" stroke="#1a1a2e" stroke-width="1.2" stroke-linecap="round"/><line x1="422.8" y1="265.0" x2="423.7" y2="265.0" stroke="#1a1a2e" stroke-width="1.2" stroke-linecap="round"/><line x1="437.4" y1="265.0" x2="438.6" y2="265.0" stroke="#1a1a2e" stroke-width="1.2" stroke-linecap="round"/><line x1="423.7" y1="265.0" x2="424.7" y2="265.0" stroke="#1a1a2e" stroke-width="1.2" stroke-linecap="round"/><line x1="424.7" y1="265.0" x2="425.6" y2="265.0" stroke="#1a1a2e" stroke-width="1.2" stroke-linecap="round"/><line x1="436.2" y1="265.0" x2="437.4" y2="265.0" stroke="#1a1a2e" stroke-width="1.2" stroke-linecap="round"/><line x1="435.0" y1="265.0" x2="436.2" y2="265.0" stroke="#1a1a2e" stroke-width="1.2" stroke-linecap="round"/><line x1="425.6" y1="265.0" x2="426.6" y2="265.0" stroke="#1a1a2e" stroke-width="1.2" stroke-linecap="round"/><line x1="433.9" y1="265.0" x2="435.0" y2="265.0" stroke="#1a1a2e" stroke-width="1.2" stroke-linecap="round"/><line x1="426.6" y1="265.0" x2="427.6" y2="265.0" stroke="#1a1a2e" stroke-width="1.2" stroke-linecap="round"/><line x1="432.8" y1="265.0" x2="433.9" y2="265.0" stroke="#1a1a2e" stroke-width="1.2" stroke-linecap="round"/><line x1="427.6" y1="265.0" x2="428.6" y2="265.0" stroke="#1a1a2e" stroke-width="1.2" stroke-linecap="round"/><line x1="431.7" y1="265.0" x2="432.8" y2="265.0" stroke="#1a1a2e" stroke-width="1.2" stroke-linecap="round"/><line x1="428.6" y1="265.0" x2="429.6" y2="265.0" stroke="#1a1a2e" stroke-width="1.2" stroke-linecap="round"/><line x1="430.6" y1="265.0" x2="431.7" y2="265.0" stroke="#1a1a2e" stroke-width="1.2" stroke-linecap="round"/><line x1="429.6" y1="265.0" x2="430.6" y2="265.0" stroke="#1a1a2e" stroke-width="1.2" stroke-linecap="round"/><line x1="49.7" y1="235.0" x2="48.0" y2="235.0" stroke="#1a1a2e" stroke-width="1.2" stroke-linecap="round"/><line x1="53.3" y1="235.0" x2="49.7" y2="235.0" stroke="#1a1a2e" stroke-width="1.2" stroke-linecap="round"/><line x1="448.1" y1="235.0" x2="446.7" y2="235.0" stroke="#1a1a2e" stroke-width="1.2" stroke-linecap="round"/><line x1="452.0" y1="235.0" x2="448.1" y2="235.0" stroke="#1a1a2e" stroke-width="1.2" stroke-linecap="round"/><line x1="48.0" y1="243.0" x2="48.0" y2="265.0" stroke="#1a1a2e" stroke-width="1.2" stroke-linecap="round"/><line x1="48.0" y1="235.0" x2="48.0" y2="243.0" stroke="#1a1a2e" stroke-width="1.2" stroke-linecap="round"/><line x1="452.0" y1="235.0" x2="452.0" y2="257.0" stroke="#1a1a2e" stroke-width="1.2" stroke-linecap="round"/><line x1="452.0" y1="257.0" x2="452.0" y2="265.0" stroke="#1a1a2e" stroke-width="1.2" stroke-linecap="round"/><line x1="53.3" y1="235.0" x2="53.3" y2="253.0" stroke="#1a1a2e" stroke-width="1.2" stroke-linecap="round"/><line x1="53.3" y1="261.0" x2="53.3" y2="253.0" stroke="#1a1a2e" stroke-width="1.2" stroke-linecap="round"/><line x1="446.7" y1="253.0" x2="446.7" y2="235.0" stroke="#1a1a2e" stroke-width="1.2" stroke-linecap="round"/><line x1="446.7" y1="261.0" x2="446.7" y2="253.0" stroke="#1a1a2e" stroke-width="1.2" stroke-linecap="round"/><line x1="53.4" y1="261.0" x2="53.3" y2="261.0" stroke="#1a1a2e" stroke-width="1.2" stroke-linecap="round"/><line x1="53.4" y1="261.0" x2="53.4" y2="261.0" stroke="#1a1a2e" stroke-width="1.2" stroke-linecap="round"/><line x1="53.5" y1="261.0" x2="53.4" y2="261.0" stroke="#1a1a2e" stroke-width="1.2" stroke-linecap="round"/><line x1="53.5" y1="261.0" x2="53.5" y2="261.0" stroke="#1a1a2e" stroke-width="1.2" stroke-linecap="round"/><line x1="53.5" y1="261.0" x2="53.5" y2="261.0" stroke="#1a1a2e" stroke-width="1.2" stroke-linecap="round"/><line x1="53.6" y1="261.0" x2="53.5" y2="261.0" stroke="#1a1a2e" stroke-width="1.2" stroke-linecap="round"/><line x1="53.6" y1="261.0" x2="53.6" y2="261.0" stroke="#1a1a2e" stroke-width="1.2" stroke-linecap="round"/><line x1="53.8" y1="261.0" x2="53.6" y2="261.0" stroke="#1a1a2e" stroke-width="1.2" stroke-linecap="round"/><line x1="88.1" y1="261.0" x2="80.4" y2="261.0" stroke="#1a1a2e" stroke-width="1.2" stroke-linecap="round"/><line x1="53.9" y1="261.0" x2="53.8" y2="261.0" stroke="#1a1a2e" stroke-width="1.2" stroke-linecap="round"/><line x1="80.4" y1="261.0" x2="53.9" y2="261.0" stroke="#1a1a2e" stroke-width="1.2" stroke-linecap="round"/><line x1="225.5" y1="261.0" x2="88.1" y2="261.0" stroke="#1a1a2e" stroke-width="1.2" stroke-linecap="round"/><line x1="261.1" y1="261.0" x2="225.5" y2="261.0" stroke="#1a1a2e" stroke-width="1.2" stroke-linecap="round"/><line x1="285.3" y1="261.0" x2="261.1" y2="261.0" stroke="#1a1a2e" stroke-width="1.2" stroke-linecap="round"/><line x1="289.0" y1="261.0" x2="288.3" y2="261.0" stroke="#1a1a2e" stroke-width="1.2" stroke-linecap="round"/><line x1="288.3" y1="261.0" x2="287.7" y2="261.0" stroke="#1a1a2e" stroke-width="1.2" stroke-linecap="round"/><line x1="287.7" y1="261.0" x2="287.2" y2="261.0" stroke="#1a1a2e" stroke-width="1.2" stroke-linecap="round"/><line x1="287.2" y1="261.0" x2="286.6" y2="261.0" stroke="#1a1a2e" stroke-width="1.2" stroke-linecap="round"/><line x1="286.6" y1="261.0" x2="286.1" y2="261.0" stroke="#1a1a2e" stroke-width="1.2" stroke-linecap="round"/><line x1="286.1" y1="261.0" x2="285.7" y2="261.0" stroke="#1a1a2e" stroke-width="1.2" stroke-linecap="round"/><line x1="285.7" y1="261.0" x2="285.3" y2="261.0" stroke="#1a1a2e" stroke-width="1.2" stroke-linecap="round"/><line x1="289.0" y1="261.0" x2="289.6" y2="261.0" stroke="#1a1a2e" stroke-width="1.2" stroke-linecap="round"/><line x1="289.6" y1="261.0" x2="290.3" y2="261.0" stroke="#1a1a2e" stroke-width="1.2" stroke-linecap="round"/><line x1="325.4" y1="261.0" x2="290.3" y2="261.0" stroke="#1a1a2e" stroke-width="1.2" stroke-linecap="round"/><line x1="339.2" y1="261.0" x2="338.5" y2="261.0" stroke="#1a1a2e" stroke-width="1.2" stroke-linecap="round"/><line x1="338.5" y1="261.0" x2="337.8" y2="261.0" stroke="#1a1a2e" stroke-width="1.2" stroke-linecap="round"/><line x1="337.8" y1="261.0" x2="337.1" y2="261.0" stroke="#1a1a2e" stroke-width="1.2" stroke-linecap="round"/><line x1="337.1" y1="261.0" x2="336.4" y2="261.0" stroke="#1a1a2e" stroke-width="1.2" stroke-linecap="round"/><line x1="336.4" y1="261.0" x2="335.7" y2="261.0" stroke="#1a1a2e" stroke-width="1.2" stroke-linecap="round"/><line x1="335.7" y1="261.0" x2="334.9" y2="261.0" stroke="#1a1a2e" stroke-width="1.2" stroke-linecap="round"/><line x1="334.9" y1="261.0" x2="334.2" y2="261.0" stroke="#1a1a2e" stroke-width="1.2" stroke-linecap="round"/><line x1="334.2" y1="261.0" x2="333.5" y2="261.0" stroke="#1a1a2e" stroke-width="1.2" stroke-linecap="round"/><line x1="333.5" y1="261.0" x2="332.8" y2="261.0" stroke="#1a1a2e" stroke-width="1.2" stroke-linecap="round"/><line x1="332.8" y1="261.0" x2="332.1" y2="261.0" stroke="#1a1a2e" stroke-width="1.2" stroke-linecap="round"/><line x1="332.1" y1="261.0" x2="331.4" y2="261.0" stroke="#1a1a2e" stroke-width="1.2" stroke-linecap="round"/><line x1="331.4" y1="261.0" x2="330.7" y2="261.0" stroke="#1a1a2e" stroke-width="1.2" stroke-linecap="round"/><line x1="330.7" y1="261.0" x2="330.1" y2="261.0" stroke="#1a1a2e" stroke-width="1.2" stroke-linecap="round"/><line x1="330.1" y1="261.0" x2="329.5" y2="261.0" stroke="#1a1a2e" stroke-width="1.2" stroke-linecap="round"/><line x1="329.5" y1="261.0" x2="328.9" y2="261.0" stroke="#1a1a2e" stroke-width="1.2" stroke-linecap="round"/><line x1="328.9" y1="261.0" x2="328.3" y2="261.0" stroke="#1a1a2e" stroke-width="1.2" stroke-linecap="round"/><line x1="328.3" y1="261.0" x2="327.8" y2="261.0" stroke="#1a1a2e" stroke-width="1.2" stroke-linecap="round"/><line x1="327.8" y1="261.0" x2="327.2" y2="261.0" stroke="#1a1a2e" stroke-width="1.2" stroke-linecap="round"/><line x1="327.2" y1="261.0" x2="326.7" y2="261.0" stroke="#1a1a2e" stroke-width="1.2" stroke-linecap="round"/><line x1="326.7" y1="261.0" x2="326.3" y2="261.0" stroke="#1a1a2e" stroke-width="1.2" stroke-linecap="round"/><line x1="326.3" y1="261.0" x2="325.8" y2="261.0" stroke="#1a1a2e" stroke-width="1.2" stroke-linecap="round"/><line x1="325.8" y1="261.0" x2="325.4" y2="261.0" stroke="#1a1a2e" stroke-width="1.2" stroke-linecap="round"/><line x1="415.2" y1="261.0" x2="389.4" y2="261.0" stroke="#1a1a2e" stroke-width="1.2" stroke-linecap="round"/><line x1="389.4" y1="261.0" x2="388.8" y2="261.0" stroke="#1a1a2e" stroke-width="1.2" stroke-linecap="round"/><line x1="446.1" y1="261.0" x2="415.2" y2="261.0" stroke="#1a1a2e" stroke-width="1.2" stroke-linecap="round"/><line x1="388.8" y1="261.0" x2="339.2" y2="261.0" stroke="#1a1a2e" stroke-width="1.2" stroke-linecap="round"/><line x1="446.7" y1="261.0" x2="446.6" y2="261.0" stroke="#1a1a2e" stroke-width="1.2" stroke-linecap="round"/><line x1="446.6" y1="261.0" x2="446.6" y2="261.0" stroke="#1a1a2e" stroke-width="1.2" stroke-linecap="round"/><line x1="446.6" y1="261.0" x2="446.6" y2="261.0" stroke="#1a1a2e" stroke-width="1.2" stroke-linecap="round"/><line x1="446.5" y1="261.0" x2="446.1" y2="261.0" stroke="#1a1a2e" stroke-width="1.2" stroke-linecap="round"/><line x1="446.6" y1="261.0" x2="446.5" y2="261.0" stroke="#1a1a2e" stroke-width="1.2" stroke-linecap="round"/></g><text x="48.0" y="279.0" text-anchor="start" font-size="9" fill="#777" font-family="monospace">-75.6</text><text x="452.0" y="279.0" text-anchor="end" font-size="9" fill="#777" font-family="monospace">75.6</text><text x="44.0" y="265.0" text-anchor="end" font-size="9" fill="#777" font-family="monospace">0.0</text><text x="44.0" y="235.0" text-anchor="end" font-size="9" fill="#777" font-family="monospace">11.2</text><text x="250.0" y="494.0" text-anchor="middle" font-size="9" fill="#777" font-family="monospace">Y (mm)</text><text x="12" y="250.0" text-anchor="middle" font-size="9" fill="#777" font-family="sans-serif" transform="rotate(-90 12 250.0)">Z (mm)</text><line x1="318.4" y1="291.0307236176077" x2="452.0" y2="291.0307236176077" stroke="#999" stroke-width="1.5"/><text x="385.2" y="302.0307236176077" text-anchor="middle" font-size="9" fill="#999" font-family="sans-serif">50 mm</text></svg>